<?xml version="1.0" encoding="utf-8"?>
<!-- Generator: Adobe Illustrator 16.0.0, SVG Export Plug-In . SVG Version: 6.00 Build 0)  -->
<!DOCTYPE svg PUBLIC "-//W3C//DTD SVG 1.1//EN" "http://www.w3.org/Graphics/SVG/1.1/DTD/svg11.dtd">
<svg version="1.1" id="Layer_1" xmlns="http://www.w3.org/2000/svg" xmlns:xlink="http://www.w3.org/1999/xlink" x="0px" y="0px"
	 width="250px" height="250px" viewBox="0 0 250 250" enable-background="new 0 0 250 250" xml:space="preserve">
<g>
	<path fill="#FFD800" d="M141.918,139.535c-0.596,0.752-0.826,1.73-0.984,2.662c-0.1,0.621-0.385,1.554,0.113,2.042
		c0.117,0.118,0.311,0.188,0.452,0.056c0.364-0.329,0.337-0.607,0.371-1.089c0.085-1.149,0.405-2.276,0.694-3.388
		C142.676,139.402,142.16,139.232,141.918,139.535z"/>
	<path fill="#FFD800" d="M139.591,140.438c-0.21,0.72-0.413,1.438-0.563,2.172c-0.104,0.507-0.256,1.054,0.021,1.512
		c0.1,0.158,0.321,0.208,0.438,0.036c0.287-0.418,0.236-0.913,0.301-1.405c0.091-0.702,0.265-1.393,0.426-2.083
		C140.307,140.268,139.714,140.02,139.591,140.438z"/>
	<path fill="#FFD800" d="M143.984,142.991c-0.049,0.004,0.004,0.094,0.168,0.276c0.205,0.198,0.475,0.293,0.76,0.291
		c0.729-0.007,1.445,0.022,2.172,0.129c0.102,0.017,0.201,0.033,0.305,0.052c3.35,1.129,6.408,2.825,9.693,4.22
		c3.408,1.446,6.861,1.959,10.363,0.576c5.652-2.232,12.256-8.076,11.462-14.776c-0.078-0.649-1.015-0.47-0.983,0.157
		c0.313,6.721-6.285,12.309-12.199,14.107c-3.203,0.978-6.141,0.153-9.021-1.104c1.68,0.327,3.398,0.447,5.163,0.378
		c3.387-0.133,6.508-1.808,9.018-3.96c0.843-0.72,1.655-1.604,2.39-2.482c1.084-1.013,1.988-2.217,2.391-3.472
		c0.105-0.108,0.172-0.258,0.165-0.44c-0.001-0.055-0.011-0.106-0.015-0.161c0.162-0.876,0.061-1.763-0.418-2.614
		c-0.105-0.193-0.32-0.277-0.517-0.268c-2.457-3.783-9.071-4.471-13.067-4.196c-3.582,0.243-6.922,1.519-9.742,3.737
		c-1.424,1.125-2.711,2.395-3.961,3.709c-1.409,1.481-3.01,2.951-4.236,4.593c-0.127,0.168-0.119,0.38-0.033,0.544
		C143.805,142.521,143.859,142.773,143.984,142.991z M152.084,142.244c-1.328-0.482-2.748-0.98-4.169-1.145
		c1.778-1.072,3.444-2.387,5.228-3.433c0.063-0.036,0.127-0.069,0.188-0.104c-0.716,1.73-0.015,3.844,1.413,5.338
		c0.137,0.144,0.281,0.279,0.432,0.41C154.141,142.997,153.122,142.624,152.084,142.244z M163.404,140.852
		c-1.067,1.101-3.051,1.228-4.137,0.06c-0.074-0.076-0.146-0.146-0.23-0.213c-0.211-0.169-0.395-0.419-0.543-0.696
		c-0.16-0.23-0.288-0.482-0.37-0.76c-0.252-0.857-0.043-1.94,0.634-2.563c0.049-0.041,0.094-0.086,0.145-0.127
		c0.334-0.343,0.75-0.602,1.22-0.738c0.265-0.075,0.528-0.108,0.788-0.108c0.029-0.002,0.054-0.006,0.079-0.008
		c0.526-0.013,1.018,0.106,1.481,0.358c0.299,0.202,0.6,0.414,0.872,0.656C164.521,137.785,164.486,139.734,163.404,140.852z
		 M172.021,139.35c-1.363,1.437-3.211,2.736-5.004,3.58c-0.185,0.086-0.367,0.164-0.553,0.241c1.735-1.856,2.492-4.383,1.733-6.753
		c1.594,0.585,3.18,1.216,4.782,1.641C172.716,138.506,172.412,138.939,172.021,139.35z M168.682,131.708
		c2.545,0.685,4.439,1.985,5.461,4.222c-0.031,0.055-0.059,0.104-0.088,0.156c-0.068-0.013-0.137-0.027-0.203-0.043
		c-1.068-0.46-2.139-0.875-3.22-1.23c-0.274-0.388-0.616-0.744-0.899-1.101c-0.588-0.745-1.187-1.476-1.803-2.19
		C168.18,131.577,168.432,131.641,168.682,131.708z M167.201,131.369c-0.003,0.041,0.004,0.086,0.033,0.131
		c0.565,0.836,1.168,1.641,1.781,2.441c0.118,0.154,0.23,0.317,0.348,0.484c-0.369-0.104-0.742-0.201-1.115-0.29
		c-0.245-0.237-0.484-0.476-0.699-0.721c-0.627-0.722-1.189-1.491-1.742-2.271C166.273,131.206,166.74,131.279,167.201,131.369z
		 M165.309,131.092c0.42,0.854,0.93,1.652,1.523,2.404c0.104,0.134,0.213,0.271,0.324,0.412c-0.174-0.031-0.346-0.067-0.521-0.094
		c-0.004-0.006-0.008-0.012-0.014-0.016c-0.25-0.271-0.564-0.311-0.85-0.219c-0.304-0.335-0.607-0.657-0.858-0.973
		c-0.414-0.518-0.804-1.086-1.229-1.621C164.229,131,164.771,131.038,165.309,131.092z M151.154,135.82
		c2.592-2.391,5.613-4.103,9.131-4.627c0.908-0.139,1.83-0.202,2.754-0.209c0.26,0.436,0.574,0.847,0.891,1.246
		c0.012-0.002,0.025-0.004,0.039-0.006c0.434-0.052,0.621,0.383,0.528,0.724c0.009,0.012,0.015,0.021,0.022,0.032
		c0.158,0.201,0.312,0.418,0.473,0.642c-0.107-0.011-0.215-0.021-0.323-0.028c-0.694-0.121-1.399-0.201-2.112-0.232
		c-1.58,0.043-3.117,0.16-4.613,0.49c-0.34,0.127-0.67,0.275-0.986,0.447c-1.581,0.604-3.104,1.424-4.525,2.227
		c-2.257,1.275-4.234,2.793-6.104,4.551c-0.081,0.007-0.167,0.013-0.247,0.025C147.85,139.439,149.391,137.441,151.154,135.82z"/>
	<path fill="#FFD800" d="M171.814,129.479c0.996,0.095,1.861,0.185,2.742,0.705c0.824,0.487,1.17,1.439,1.967,1.912
		c0.224,0.133,0.547-0.021,0.539-0.295c-0.02-1.098-1.105-1.978-1.961-2.531c-0.955-0.612-2.263-0.826-3.341-0.481
		C171.391,128.906,171.404,129.438,171.814,129.479z"/>
	<path fill="#FFD800" d="M161.42,136.953c-0.494-0.006-0.953,0.117-1.331,0.447c-0.38,0.324-0.614,0.799-0.646,1.295
		c-0.062,0.979,0.729,1.964,1.746,1.979c0.494,0.005,0.951-0.122,1.332-0.45c0.377-0.324,0.613-0.798,0.643-1.298
		C163.225,137.952,162.436,136.966,161.42,136.953z"/>
	<path fill="#FFD800" d="M143.102,146.758c1.89,0.78,3.824,1.463,5.69,2.305c0.965,0.432,1.935,0.848,2.888,1.306
		c0.898,0.431,1.62,1.024,2.644,0.854c0.43-0.072,0.665-0.525,0.503-0.926c-0.596-1.441-2.905-2.002-4.243-2.537
		c-2.285-0.917-4.752-1.563-7.199-1.798C142.939,145.918,142.615,146.559,143.102,146.758z"/>
	<path fill="#FFD800" d="M105.477,143.927c0.023,0.482-0.012,0.763,0.342,1.103c0.144,0.134,0.334,0.066,0.457-0.047
		c0.51-0.476,0.25-1.414,0.162-2.035c-0.13-0.937-0.334-1.922-0.912-2.689c-0.234-0.307-0.754-0.152-0.654,0.268
		C105.133,141.641,105.422,142.773,105.477,143.927z"/>
	<path fill="#FFD800" d="M107.57,143.529c0.052,0.492-0.012,0.986,0.265,1.412c0.114,0.174,0.337,0.133,0.438-0.024
		c0.292-0.451,0.151-1.002,0.061-1.509c-0.13-0.737-0.313-1.461-0.504-2.188c-0.113-0.423-0.713-0.19-0.63,0.218
		C107.345,142.131,107.498,142.826,107.57,143.529z"/>
	<path fill="#FFD800" d="M100.253,144.271c0.728-0.086,1.444-0.097,2.175-0.069c0.284,0.009,0.559-0.081,0.769-0.271
		c0.169-0.181,0.223-0.269,0.173-0.271c0.132-0.215,0.195-0.465,0.167-0.702c0.089-0.16,0.103-0.372-0.02-0.544
		c-1.182-1.673-2.748-3.184-4.113-4.702c-1.216-1.346-2.469-2.649-3.864-3.812c-2.761-2.289-6.066-3.655-9.642-3.992
		c-3.985-0.376-10.616,0.137-13.172,3.855c-0.196-0.017-0.413,0.062-0.527,0.254c-0.498,0.838-0.622,1.724-0.485,2.603
		c-0.004,0.055-0.011,0.104-0.017,0.159c-0.016,0.184,0.051,0.335,0.153,0.445c0.371,1.266,1.242,2.494,2.3,3.534
		c0.71,0.898,1.5,1.8,2.322,2.546c2.452,2.215,5.53,3.971,8.911,4.192c1.763,0.114,3.482,0.039,5.172-0.243
		c-2.914,1.182-5.871,1.926-9.049,0.866c-5.863-1.953-12.316-7.711-11.826-14.422c0.047-0.625-0.884-0.83-0.979-0.183
		c-0.969,6.678,5.48,12.691,11.071,15.069c3.463,1.474,6.932,1.054,10.374-0.306c3.318-1.309,6.426-2.922,9.802-3.965
		C100.051,144.301,100.152,144.286,100.253,144.271z M80.465,131.434c0.466-0.078,0.934-0.14,1.402-0.185
		c-0.574,0.76-1.158,1.517-1.805,2.22c-0.218,0.243-0.467,0.473-0.717,0.705c-0.377,0.075-0.749,0.165-1.124,0.26
		c0.123-0.166,0.241-0.326,0.362-0.477c0.634-0.786,1.255-1.574,1.843-2.396C80.459,131.518,80.465,131.477,80.465,131.434z
		 M73.699,135.934c-0.072,0.012-0.138,0.023-0.209,0.037c-0.027-0.055-0.055-0.104-0.084-0.158c1.082-2.213,3.01-3.461,5.57-4.078
		c0.254-0.063,0.505-0.115,0.756-0.168c-0.635,0.699-1.251,1.414-1.858,2.143c-0.291,0.35-0.642,0.695-0.929,1.076
		C75.855,135.111,74.771,135.501,73.699,135.934z M80.348,142.995c-1.77-0.894-3.584-2.242-4.908-3.711
		c-0.381-0.419-0.673-0.86-0.928-1.313c1.614-0.384,3.217-0.973,4.825-1.518c-0.823,2.352-0.132,4.896,1.555,6.798
		C80.708,143.169,80.527,143.085,80.348,142.995z M80.981,133.878c-0.007,0.004-0.013,0.011-0.016,0.015
		c-0.173,0.023-0.348,0.053-0.522,0.082c0.117-0.142,0.228-0.275,0.338-0.402c0.61-0.739,1.141-1.524,1.584-2.367
		c0.542-0.039,1.082-0.061,1.625-0.061c-0.438,0.522-0.842,1.082-1.271,1.588c-0.261,0.309-0.571,0.623-0.881,0.947
		C81.555,133.583,81.241,133.614,80.981,133.878z M89.335,139.541c-0.089,0.271-0.223,0.521-0.392,0.748
		c-0.154,0.277-0.346,0.52-0.563,0.682c-0.084,0.063-0.158,0.133-0.231,0.209c-1.116,1.139-3.095,0.959-4.138-0.168
		c-1.051-1.144-1.036-3.096,0.172-4.136c0.275-0.237,0.584-0.438,0.89-0.635c0.468-0.239,0.966-0.347,1.49-0.317
		c0.025,0,0.05,0.006,0.074,0.008c0.265,0.008,0.528,0.049,0.787,0.129c0.468,0.151,0.876,0.42,1.203,0.771
		c0.046,0.043,0.091,0.088,0.137,0.131C89.429,137.602,89.606,138.689,89.335,139.541z M90.627,134.631
		c-0.309-0.182-0.639-0.341-0.972-0.477c-1.485-0.366-3.021-0.524-4.597-0.611c-0.715,0.014-1.422,0.077-2.121,0.18
		c-0.105,0.006-0.217,0.014-0.324,0.021c0.168-0.22,0.328-0.431,0.486-0.627c0.012-0.013,0.021-0.022,0.029-0.032
		c-0.085-0.345,0.11-0.773,0.543-0.709c0.015,0.004,0.028,0.004,0.041,0.006c0.328-0.39,0.651-0.794,0.923-1.223
		c0.923,0.029,1.843,0.117,2.747,0.277c3.505,0.623,6.479,2.407,9.01,4.866c1.717,1.667,3.207,3.705,4.934,5.411
		c-0.083-0.013-0.165-0.023-0.247-0.031c-1.822-1.805-3.761-3.373-5.983-4.709C93.694,136.131,92.192,135.273,90.627,134.631z
		 M95.295,142.701c-1.052,0.35-2.078,0.695-3.12,0.984c0.153-0.127,0.303-0.262,0.444-0.4c1.465-1.454,2.218-3.551,1.551-5.301
		c0.061,0.039,0.123,0.076,0.182,0.113c1.758,1.09,3.388,2.448,5.14,3.565C98.066,141.79,96.633,142.25,95.295,142.701z"/>
	<path fill="#FFD800" d="M71.125,131.917c0.813-0.45,1.182-1.397,2.018-1.862c0.893-0.494,1.764-0.563,2.764-0.636
		c0.407-0.028,0.436-0.56,0.068-0.687c-1.07-0.373-2.384-0.194-3.352,0.396c-0.869,0.53-1.979,1.381-2.027,2.478
		C70.583,131.88,70.9,132.041,71.125,131.917z"/>
	<path fill="#FFD800" d="M87.418,137.646c-0.371-0.336-0.826-0.476-1.318-0.48c-1.019-0.014-1.832,0.95-1.797,1.93
		c0.015,0.497,0.24,0.979,0.609,1.313c0.373,0.337,0.826,0.475,1.319,0.481c1.021,0.014,1.831-0.951,1.796-1.931
		C88.011,138.463,87.787,137.98,87.418,137.646z"/>
	<path fill="#FFD800" d="M96.649,148.251c-1.351,0.502-3.672,1.001-4.306,2.427c-0.175,0.395,0.051,0.854,0.48,0.937
		c1.014,0.2,1.75-0.376,2.658-0.782c0.968-0.434,1.947-0.823,2.922-1.23c1.892-0.789,3.84-1.422,5.751-2.153
		c0.489-0.187,0.183-0.834-0.261-0.806C101.442,146.814,98.957,147.396,96.649,148.251z"/>
	<path fill="#FFD800" d="M61.105,99.725c0.061,0,0.062-0.095,0-0.097C61.044,99.628,61.045,99.723,61.105,99.725z"/>
	<path fill="#FFD800" d="M129.747,140.861c-2.666-2.211-8.163-4.428-10.565-0.694c-0.187,0.289,0.193,0.588,0.457,0.437
		c3.033-1.735,6.402-0.805,8.878,1.457C129.34,142.811,130.588,141.563,129.747,140.861z"/>
	<path fill="#FFD800" d="M218.248,104.804c-0.709-3.011-3.577-5.5-6.52-6.156c-0.582-0.13-1.172-0.139-1.752-0.047
		c-0.277-5.603-0.771-11.222-1.799-16.693c-2.367-12.583-7.033-25.125-14.486-35.636c-2.971-3.158-6.055-6.229-9.438-8.947
		c-3.215-2.581-6.596-5.039-9.983-7.412c-1.502-0.637-3.008-1.26-4.519-1.875c-3.621-1.476-7.222-3.097-10.938-4.316
		c-6.571-2.158-13.623-3.429-20.552-2.727c-4.868,0.495-9.948,2.101-13.897,5.122c-3.59-2.364-7.906-3.729-12.084-4.263
		c-6.907-0.884-13.987,0.201-20.617,2.186c-3.748,1.124-7.387,2.648-11.046,4.03c-1.526,0.576-3.048,1.16-4.563,1.755
		c-3.451,2.283-6.896,4.652-10.176,7.149c-3.453,2.63-6.617,5.618-9.668,8.698c-7.726,10.312-12.72,22.727-15.415,35.245
		c-1.656,7.686-2.246,15.698-2.679,23.536c-0.124,2.222-0.212,4.444-0.288,6.666c0.032,0.313,0.071,0.625,0.112,0.938
		c-0.632-0.075-1.289-0.065-1.955,0.048c-0.358,0.064-0.772,0.249-0.906,0.627c-3.039,8.533-1.725,18.116,0.573,26.657
		c1.246,4.635,3.069,9.133,5.514,13.262c0.453,0.769,0.939,1.519,1.453,2.246c-1.075,2.084-0.641,5.248-0.223,7.34
		c0.332,1.666,1.131,4.431,2.558,6.016c-0.034,0.378-0.068,0.758-0.114,1.139c-0.477,4.147-1.189,8.262-1.566,12.424
		c-0.627,7.018,0.404,13.848,3.447,20.229c2.375,4.99,5.939,9.427,10.318,12.804c0.113,0.168,0.224,0.334,0.333,0.493
		c1.49,2.19,3.401,3.946,5.543,5.482c3.317,2.382,7.267,4.03,11.271,4.809c3.614,0.704,7.561,0.664,11-0.758
		c3.24,2.375,7.742,3.533,11.295,4.207c0.682,0.127,1.363,0.241,2.05,0.346c0.044,0.056,0.097,0.099,0.163,0.124
		c0.998,0.376,2.118,0.426,3.16,0.643c0.84,0.172,1.668,0.414,2.496,0.638c0.739,0.271,1.421,0.69,2.184,0.921
		c0.327,0.102,0.655,0.193,0.986,0.28c4.658,2.79,10.434,3.944,15.688,4.282c3.757,0.238,7.505-0.066,11.181-0.859
		c1.652-0.357,3.271-0.855,4.846-1.458c1.354-0.519,2.998-1.115,4.146-2.086c7.123-0.169,14.748-0.771,21.64-3.035
		c2.383-0.29,4.748-1.121,6.861-2.024c3.412-1.459,6.65-3.367,9.686-5.5c3.758-2.064,7.174-4.723,10.084-7.869
		c2.621-2.118,4.92-4.539,6.767-7.367c3.791-5.809,6.177-12.249,7.409-19.055c1.115-6.158,1.033-12.252,0.498-18.436
		c0.902-1.227,0.99-2.794,1.188-4.309c0.225-1.774,0.264-3.569,0.26-5.354c-0.008-1.726-0.194-3.452-0.41-5.161
		c-0.127-0.975-0.23-2.037-0.435-3.061c2.544-3.235,4.423-7.109,5.878-10.797c2.367-5.998,3.813-12.389,4.785-18.746
		c0.385-2.517,0.637-5.084,0.865-7.619C218.711,110.701,218.916,107.637,218.248,104.804z M201.072,145.302
		c-0.117,0.304-0.236,0.606-0.352,0.909c0.008-0.072,0.014-0.148,0.021-0.223C200.777,145.689,200.9,145.465,201.072,145.302z
		 M174.738,178.293c-2.271,2.03-4.539,3.537-6.848,4.546c0.084-0.493,0.129-0.998,0.133-1.515c0.009-0.975-1.271-1.346-1.887-0.69
		c-2.857,3.019-7.201,3.37-11.261,2.978c-1.146-0.309-2.315-0.702-3.508-1.187c-5.036-2.047-9.425-6.87-14.479-8.914
		c1.192-1.405,1.336-3.805,1.129-5.569c-0.219-1.858-0.713-3.928-1.605-5.717c-0.456-1.422-1.189-2.705-2.279-3.609
		c-0.271-0.227-0.591,0.174-0.402,0.436c0.103,0.143,0.197,0.297,0.287,0.449c-0.011,0.021-0.021,0.045-0.026,0.07
		c-0.005,0.031-0.011,0.07-0.019,0.102c-0.035,0.067-0.048,0.146-0.022,0.236c-0.034,0.564,0.096,1.216,0.565,1.527
		c0.008,0.01,0.021,0.015,0.029,0.018c0.289,0.807,0.557,1.638,0.789,2.471c0.098,0.938,0.115,1.876,0.076,2.739
		c-0.364,1.332-0.944,2.644-2.042,3.418c-0.739,0.519-1.498,0.884-2.269,1.097c0.248-1.742,0.049-3.701-0.024-5.056
		c-0.039-0.698-1.005-0.644-1.063,0.024c-0.125,1.418-0.248,2.843-0.492,4.246c-0.138,0.779-0.42,1.482-0.623,2.209
		c-0.013,0.016-0.021,0.031-0.031,0.049c-0.191,0.263-0.41,0.515-0.653,0.75c-0.713,1.125-1.958,1.979-3.171,2.218
		c-0.862,0.173-1.724,0.086-2.504-0.2c-0.049-0.005-0.096-0.009-0.146-0.018c-0.089-0.049-0.179-0.101-0.264-0.154
		c-0.925-0.439-1.708-1.18-2.206-2.126c-0.102-0.198-0.197-0.396-0.289-0.593c-0.243-0.438-0.454-0.896-0.628-1.358
		c-0.929-2.492-0.529-5.509-0.268-8.082c0.644-6.346,1.145-12.752,1.574-19.12c0.017-0.215-0.307-0.264-0.335-0.045
		c-0.967,7.445-2.5,14.822-3.304,22.288c-0.17,1.563-0.117,3.129,0.236,4.622c-1.867-0.466-3.377-1.48-3.763-3.643
		c-0.424-2.395,0.808-4.929,1.866-6.979c0.167-0.322-0.24-0.641-0.505-0.386c-1.275,1.204-2.197,2.813-2.606,4.532
		c-0.224,0.595-0.399,1.203-0.48,1.826c-0.157,1.188,0.042,2.31,0.655,3.313c0.215,0.657,0.57,1.267,1.082,1.71
		c0.568,0.496,1.264,0.768,1.971,0.82c0.109,0.043,0.219,0.078,0.328,0.108c-3.715,0.009-7.09,2.522-10.523,5.081
		c-3.715,2.771-7.887,5.338-12.079,6.457c-1.343-0.078-2.673-0.271-3.981-0.572c-2.746-0.635-5.563-1.977-6.811-4.646
		c-0.463-0.988-1.962-0.657-1.863,0.468c0.061,0.721,0.135,1.516,0.247,2.34c-0.064-0.055-0.135-0.109-0.198-0.164
		c-12.146-10.4-27.623-18.957-29.813-37.651c-0.145-1.242-0.333-2.479-0.552-3.744c0.427,0.167,0.859,0.317,1.279,0.487
		c1.181,0.481,2.368,0.939,3.562,1.396c0.268,0.103,0.539,0.2,0.805,0.304c0.125,0.072,0.252,0.146,0.38,0.221
		c1.786,1.043,3.833,2.41,5.952,2.744c1.428,12.758,12.188,22.789,25.346,22.959c14.257,0.188,26.006-11.262,26.193-25.515
		c0.006-0.53-0.007-1.06-0.031-1.583c1.118-0.492,2.175-1.121,3.255-1.705c1.886-1.02,3.835-1.922,5.854-2.65
		c1.966-0.707,4.169-1.066,6.24-0.66c2.295,0.451,3.984,1.941,5.373,3.734c-0.055,0.641-0.086,1.285-0.095,1.938
		c-0.187,14.254,11.257,26.004,25.512,26.189c13.075,0.172,24.042-9.451,25.909-22.045c0.667-0.26,1.323-0.563,1.883-0.75
		c1.709-0.563,3.455-0.998,5.195-1.459c2.426-0.646,5.184-1.133,7.627-2.089c0.303-0.106,0.602-0.219,0.893-0.338
		c0.023,0.005,0.051,0.009,0.075,0.013C197.145,156.061,186.758,167.537,174.738,178.293z M165.161,183.652
		c-0.026,0.055-0.056,0.109-0.082,0.166c-0.229,0.061-0.457,0.115-0.69,0.164C164.646,183.879,164.907,183.77,165.161,183.652z
		 M143.334,180.449c-0.438-0.202-0.873-0.396-1.277-0.588c-1.355-0.646-2.752-1.203-4.172-1.688
		c-0.236-0.133-0.47-0.271-0.713-0.396c-1.85-0.942-4.333-2.065-6.625-2.043c0.088-0.243,0.154-0.502,0.204-0.771
		c2.015-0.094,4.204,0.68,5.952,1.448c2.023,0.894,3.975,1.978,5.779,3.252c0.43,0.305,0.867,0.608,1.297,0.928
		C143.631,180.544,143.484,180.496,143.334,180.449z M144.932,185.872c-0.699-0.146-1.393-0.312-2.074-0.513
		c-0.606-0.183-1.213-0.387-1.808-0.614c-0.585-0.515-1.334-0.722-2.036-1.068c-0.808-0.396-1.564-0.874-2.299-1.393
		c-0.652-0.456-1.23-0.978-1.783-1.521c-0.035-0.113,0.01-0.242,0.094-0.312c0.394,0.219,0.795,0.428,1.197,0.63
		c0.865,0.566,1.754,1.086,2.666,1.55C140.818,183.885,142.834,185.025,144.932,185.872z M132.506,185.537
		c7.447,4.891,17.295,3.056,25.663,2.799c0.194-0.006,0.197,0.284,0.009,0.3c-4.588,0.341-9.131,1.349-13.746,1.113
		c-2.132-0.108-4.361-0.319-6.367-1.08c-2-0.762-3.83-1.88-5.57-3.106C132.477,185.552,132.488,185.527,132.506,185.537z
		 M147.337,191.984c3.003,0.025,6.138-0.221,9.384-0.74c0.941-0.303,1.907-0.639,2.814-0.614c0.102,0.004,0.195,0.021,0.291,0.043
		c0.514-0.108,1.031-0.225,1.55-0.342c-0.446,0.267-0.903,0.513-1.375,0.741c-2.217,1.07-4.731,1.273-7.158,1.359
		c-3.061,0.104-6.151-0.242-9.161-0.884C144.896,191.73,146.113,191.889,147.337,191.984z M128.814,183.396
		c0.08,0.056,0.045,0.207-0.066,0.174c-1.137-0.344-2.167-0.756-3.377-0.508c-0.271,0.057-0.395-0.36-0.121-0.416
		C126.504,182.402,127.781,182.645,128.814,183.396z M127.291,176.402c0.48-0.478,1.014-0.814,1.583-1.047
		c-0.046,0.225-0.086,0.446-0.108,0.67c-0.438,0.15-0.863,0.363-1.258,0.65C127.342,176.798,127.152,176.542,127.291,176.402z
		 M108.305,187.895c-0.457,0.108-0.649-0.549-0.201-0.701c0.136-0.047,0.275-0.092,0.414-0.137c1.988-0.115,3.931-0.648,5.846-1.383
		c1.539-0.59,3.018-1.338,4.465-2.126c0.232,0.119,0.348,0.458,0.126,0.67c-1.446,1.373-3.454,2.099-5.531,2.603
		c-0.386,0.207-0.771,0.41-1.159,0.615c0.174-0.148,0.34-0.301,0.489-0.457C111.215,187.318,109.67,187.566,108.305,187.895z
		 M99.006,190.902c2.396,0.195,4.91-0.111,7.24-0.758c-0.17,0.061-0.336,0.125-0.504,0.185c-6.773,2.327-14.095,1.16-20.195-2.255
		c0-0.08-0.016-0.159-0.049-0.237c0.633,0.292,1.297,0.535,2.008,0.711c0.451,0.112,0.912,0.183,1.371,0.224
		c0.821,0.219,1.666,0.373,2.518,0.487C93.846,190.121,96.404,190.691,99.006,190.902z M97.284,186.35
		c4.052,0.914,7.809-0.051,11.466-1.805c0.158-0.074,0.281,0.129,0.141,0.232c-3.189,2.307-7.944,2.785-11.695,1.939
		C96.957,186.663,97.047,186.295,97.284,186.35z M112.064,190.742c-2.012,1.242-4.275,1.906-6.602,2.229
		C107.76,192.525,109.936,191.702,112.064,190.742z M115.482,176.158c-0.049-0.016-0.106-0.026-0.168-0.021
		c-3.422,0.18-6.438,1.551-9.385,3.19c-2.453,1.37-4.798,2.776-7.263,4.008c0.005,0,0.005-0.002,0.007-0.004
		c2.001-1.383,4.334-2.274,6.383-3.63c1.818-1.201,3.604-2.43,5.611-3.301c1.982-0.858,4.357-1.377,6.511-0.879
		c0.099-0.004,0.195-0.011,0.296-0.015c0.587-0.015,1.314,0.015,2.037,0.144c0.236,0.254,0.486,0.502,0.751,0.738
		C118.676,175.966,117.057,175.904,115.482,176.158z M82.394,197.29c-0.64-1.31-1.343-2.59-2.089-3.845
		c0.033,0.013,0.065,0.02,0.097,0.029C81.124,194.715,81.801,195.98,82.394,197.29z M80.949,184.62
		c0.113,0.103,0.227,0.204,0.342,0.305c0.035,0.097,0.07,0.19,0.107,0.284c-0.013-0.007-0.021-0.018-0.032-0.023
		c-0.063-0.053-0.13-0.102-0.194-0.151C81.098,184.898,81.021,184.76,80.949,184.62z M58.749,190.627
		c-2.95-5.104-5.263-10.545-6.831-16.229c-0.689-2.487-1.172-4.986-1.551-7.502c0.326,0.82,0.688,1.625,1.072,2.42
		C53.156,176.646,55.527,183.822,58.749,190.627z M52.33,156.68c1.965,3.771,4.346,7.348,6.745,10.666
		c2.103,2.901,4.304,5.725,6.488,8.565c-0.103-0.106-0.201-0.211-0.304-0.315c-5.084-5.31-9.852-10.986-12.662-17.843
		C52.508,157.396,52.418,157.036,52.33,156.68z M57.875,185.621c0.117,0.018,0.238-0.016,0.34-0.08
		c0.966,1.716,1.98,3.402,3.035,5.061c0.061,0.09,0.117,0.178,0.175,0.27c3.038,5.729,6.532,11.212,10.489,16.359
		c0.043,0.059,0.088,0.115,0.133,0.174c-0.68-0.645-1.358-1.295-2.018-1.963c-0.838-0.85-1.649-1.721-2.443-2.61
		c-1.844-2.397-3.503-4.942-5-7.563C60.805,192.157,59.264,188.924,57.875,185.621z M58.209,174.886
		c-0.388-0.962-0.766-1.929-1.132-2.899c0.611,0.882,1.285,1.699,2.037,2.347c0.021,0.019,0.048,0.031,0.071,0.041
		c0.747,0.956,1.505,1.905,2.258,2.854c1.502,1.891,3.197,3.592,4.697,5.475c2.318,2.906,4.383,5.906,6.244,9.063
		c-2.979-3.574-6.152-6.996-9.168-10.533C61.479,179.186,59.775,177.083,58.209,174.886z M67.443,182.958
		c-1.418-1.896-2.664-3.901-4.129-5.76c-0.417-0.523-0.829-1.054-1.242-1.581c1.474,1.619,2.99,3.203,4.503,4.789
		c2.767,3.752,5.503,7.498,7.827,11.58c0.498,0.88,0.966,1.777,1.412,2.686C73.351,190.572,70.305,186.785,67.443,182.958z
		 M62.083,168.811c1.123,1.229,2.245,2.455,3.33,3.705c1.284,1.481,2.509,3.006,3.699,4.555
		C66.777,174.313,64.394,171.593,62.083,168.811z M53.521,139.164c0.367,0.15,0.732,0.298,1.098,0.451
		c0.02,0.051,0.041,0.102,0.058,0.15c0.01,0.021,0.013,0.039,0.02,0.06C54.307,139.604,53.914,139.382,53.521,139.164z
		 M55.434,139.954c0.536,0.219,1.072,0.437,1.615,0.64c0.004,0.021,0.01,0.036,0.017,0.055c0.065,0.215,0.142,0.426,0.223,0.636
		c-0.282-0.146-0.561-0.296-0.832-0.449c-0.325-0.187-0.652-0.375-0.981-0.563C55.467,140.166,55.453,140.059,55.434,139.954z
		 M58.852,141.552c-0.057-0.129-0.103-0.26-0.151-0.389c0.237,0.071,0.471,0.142,0.705,0.204c0.097,0.333,0.132,0.677,0.147,1.021
		c-0.229-0.113-0.46-0.224-0.692-0.334C58.924,141.911,58.932,141.741,58.852,141.552z M60.352,141.6
		c0.443,0.092,0.891,0.168,1.346,0.225c-0.004,0.496,0.007,0.988,0.032,1.477c-0.46-0.172-0.915-0.35-1.368-0.527
		C60.378,142.377,60.39,141.988,60.352,141.6z M104.056,137.104c-3.997-7.016-11.394-12.462-19.488-13.399
		c-2.894-0.336-5.78-0.229-8.597,0.253c3.417-2.204,7.493-3.465,11.854-3.409c11.81,0.155,21.291,9.886,21.138,21.692
		c-0.156,11.81-9.889,21.289-21.698,21.132c-11.804-0.153-21.285-9.884-21.13-21.69c0.072-5.566,2.273-10.613,5.818-14.381
		c4.057-1.385,8.377-1.987,12.595-1.58c3.528,0.34,6.99,1.281,10.103,3c3.748,2.064,6.437,5.236,8.92,8.649
		C103.773,137.648,104.236,137.421,104.056,137.104z M113.664,137.707c-0.183,0.143-0.369,0.279-0.547,0.43
		c-0.156-1.059-0.383-2.092-0.665-3.104c0.173-0.126,0.349-0.247,0.522-0.369c0.119,0.824,0.23,1.595,0.494,2.414
		C113.532,137.273,113.592,137.493,113.664,137.707z M113.574,134.255c0.209-0.139,0.423-0.276,0.637-0.412
		c0.146,0.724,0.389,1.413,0.686,2.101c0.086,0.195,0.182,0.438,0.297,0.681c-0.173,0.114-0.344,0.226-0.516,0.343
		c-0.08-0.156-0.159-0.309-0.211-0.453C114.181,135.75,113.874,135.011,113.574,134.255z M115.486,133.073
		c0.3-0.173,0.607-0.337,0.913-0.499c0.125,0.924,0.313,2,0.744,2.813c-0.141,0.084-0.282,0.172-0.423,0.258
		c-0.089,0.056-0.178,0.112-0.265,0.168C115.998,134.941,115.644,134.047,115.486,133.073z M117.533,132.003
		c0.383-0.181,0.766-0.353,1.15-0.515c0.054,0.947,0.203,1.865,0.34,2.818c-0.223,0.121-0.446,0.242-0.669,0.37
		c-0.112-0.294-0.242-0.579-0.345-0.876C117.803,133.216,117.656,132.613,117.533,132.003z M122.208,131.281
		c0.024,0.511,0.037,1.042,0.098,1.557c-0.56,0.196-1.112,0.419-1.657,0.666c-0.17-0.859-0.382-1.693-0.633-2.531
		c0.73-0.261,1.469-0.482,2.211-0.668C122.191,130.636,122.193,130.971,122.208,131.281z M123.985,129.949
		c0.882-0.137,1.763-0.206,2.645-0.21c-0.042,0.292-0.049,0.591-0.06,0.868c-0.021,0.459-0.065,0.916-0.066,1.377
		c-0.708,0.041-1.424,0.137-2.156,0.285c-0.047-0.338-0.102-0.677-0.143-1.014C124.152,130.843,124.104,130.381,123.985,129.949z
		 M128.084,129.803c0.596,0.053,1.186,0.146,1.771,0.271c-0.222,0.668-0.435,1.346-0.61,2.031c-0.363-0.055-0.726-0.096-1.097-0.117
		c0.015-0.496-0.022-1.002-0.032-1.495C128.111,130.273,128.107,130.037,128.084,129.803z M131.088,132.533
		c0.143-0.676,0.213-1.366,0.247-2.057c0.269,0.09,0.534,0.189,0.8,0.297c-0.316,0.582-0.6,1.219-0.746,1.861
		C131.288,132.604,131.189,132.566,131.088,132.533z M132.803,133.229c0.207-0.614,0.358-1.276,0.498-1.922
		c0.299,0.154,0.602,0.326,0.896,0.508c-0.4,0.5-0.719,1.062-0.893,1.683C133.141,133.404,132.973,133.313,132.803,133.229z
		 M134.5,134.256c0.014-0.023,0.021-0.046,0.031-0.07c0.182-0.6,0.384-1.193,0.537-1.803c0.176,0.126,0.35,0.256,0.521,0.391
		c-0.223,0.604-0.426,1.22-0.606,1.845C134.824,134.492,134.663,134.372,134.5,134.256z M143.951,136.7
		c2.566-3.349,5.338-6.446,9.137-8.415c3.16-1.637,6.646-2.484,10.18-2.73c4.232-0.297,8.531,0.416,12.553,1.907
		c3.443,3.856,5.515,8.961,5.441,14.526c-0.154,11.809-9.887,21.289-21.695,21.135c-11.807-0.155-21.287-9.887-21.133-21.693
		s9.887-21.288,21.693-21.135c4.368,0.059,8.412,1.428,11.773,3.726c-2.805-0.56-5.691-0.744-8.598-0.486
		c-8.117,0.727-15.654,5.979-19.832,12.887C143.282,136.732,143.738,136.975,143.951,136.7z M186.925,143.322
		c-0.087,0.017-0.175,0.037-0.263,0.053c0.041-0.098,0.059-0.21,0.037-0.333c-0.055-0.3-0.127-0.655-0.151-0.972
		c0.11,0.012,0.226,0.017,0.341,0.021c-0.027,0.225-0.037,0.455-0.053,0.692C186.82,142.971,186.85,143.161,186.925,143.322z
		 M188.236,143.049c-0.053,0.014-0.106,0.026-0.158,0.038c0.023-0.153,0.023-0.319,0.02-0.468c-0.01-0.189-0.017-0.369-0.031-0.545
		c0.07-0.006,0.144-0.014,0.217-0.018C188.246,142.387,188.2,142.721,188.236,143.049z M189.354,141.938
		c0.234-0.03,0.457-0.066,0.664-0.099c-0.014,0.224-0.024,0.45-0.039,0.675c-0.187,0.055-0.371,0.112-0.559,0.17
		c-0.006-0.228-0.037-0.457-0.055-0.675C189.363,141.984,189.359,141.96,189.354,141.938z M191.826,141.994
		c-0.026,0.007-0.053,0.013-0.078,0.021c-0.208,0.053-0.418,0.115-0.628,0.174c-0.003-0.176-0.011-0.353-0.017-0.528
		c0.239-0.041,0.48-0.084,0.723-0.127C191.814,141.688,191.813,141.839,191.826,141.994z M193.141,141.283
		c0.069-0.016,0.141-0.034,0.213-0.047c0.004,0.117,0.017,0.232,0.025,0.35c-0.066,0.02-0.138,0.035-0.203,0.055
		c-0.016-0.096-0.02-0.192-0.025-0.287C193.148,141.327,193.145,141.307,193.141,141.283z M194.868,140.908
		c0.052-0.014,0.104-0.022,0.153-0.033c0.272-0.063,0.543-0.133,0.811-0.198c-0.018,0.089-0.021,0.179-0.025,0.265
		c-0.283,0.078-0.566,0.154-0.851,0.229C194.932,141.082,194.904,140.994,194.868,140.908z M196.784,140.443
		c0.188-0.049,0.372-0.103,0.559-0.152c0.005,0.068,0.011,0.139,0.022,0.206c-0.1,0.026-0.201,0.063-0.301,0.09
		c-0.045,0.015-0.088,0.026-0.135,0.037c-0.039-0.035-0.084-0.069-0.109-0.122C196.814,140.479,196.797,140.465,196.784,140.443z
		 M198.882,139.87c0.416-0.12,0.847-0.234,1.265-0.367c0.004,0.028,0.004,0.058,0.004,0.085c-0.418,0.133-0.834,0.271-1.25,0.413
		c-0.006-0.034-0.014-0.065-0.017-0.097C198.882,139.893,198.882,139.879,198.882,139.87z M201.816,73.928
		c-2.021-4.586-4.418-9.017-7.099-13.246c-2.284-4.203-4.799-8.277-7.586-12.184c-2.472-3.467-5.101-6.863-7.903-10.105
		C189.878,47.869,197.723,60.299,201.816,73.928z M200.826,96.164c-0.229-0.396-0.469-0.791-0.707-1.183
		c0.006-0.009,0.009-0.017,0.018-0.026C200.368,95.355,200.602,95.758,200.826,96.164z M182.865,76.542
		c-3.784-2.693-7.834-4.984-12.072-6.88c-1.559-0.693-3.139-1.329-4.725-1.938c1.256,0.368,2.509,0.747,3.746,1.165
		c3.728,1.257,7.223,2.825,10.615,4.817c3.475,2.038,6.647,4.501,9.51,7.332c2.764,2.73,4.974,5.894,7.137,9.1
		c-0.139-0.159-0.279-0.317-0.416-0.476c-1.424-1.651-2.887-3.27-4.396-4.847C189.378,81.81,186.26,78.956,182.865,76.542z
		 M190.635,90.889c-0.121,0.093-0.201,0.233-0.195,0.386c-1.088-0.97-2.203-1.901-3.348-2.791c-0.539-1.07-1.432-2.034-2.193-2.915
		C186.961,87.173,188.875,88.95,190.635,90.889z M137.758,58.143c3.088,2.71,6.328,4.885,9.924,6.826
		c2.639,1.426,5.379,2.616,8.16,3.692c-1.699-0.437-3.391-0.897-5.064-1.415c-2.303-0.711-4.557-1.535-6.709-2.55
		c-0.354-0.218-0.703-0.439-1.051-0.662c-3.531-2.258-7.123-4.942-10.084-8.119c-0.113-0.141-0.217-0.283-0.322-0.425
		c0.127-0.536,0.244-1.075,0.349-1.619C134.516,55.344,136.154,56.736,137.758,58.143z M133.313,51.581
		c0.033-0.271,0.059-0.54,0.084-0.809c0.599,0.641,1.211,1.266,1.83,1.87c0.892,0.875,1.82,1.688,2.775,2.463
		C136.406,54.093,134.797,52.909,133.313,51.581z M164.488,76.05c1.058,0.61,2.117,1.219,3.17,1.831
		c-0.32-0.115-0.643-0.229-0.961-0.341c-2.735-0.952-5.551-1.666-8.333-2.458c-2.57-0.731-5.261-1.513-7.753-2.643
		C155.166,73.782,159.88,74.808,164.488,76.05z M166.525,76.615c3.244,0.936,6.416,2.021,9.416,3.446
		c0.979,0.466,1.936,0.963,2.867,1.481c0.119,0.105,0.241,0.21,0.36,0.314c1.231,1.113,2.414,2.275,3.535,3.501
		c-3.506-2.303-7.179-4.256-11.033-5.813c-0.01-0.007-0.021-0.013-0.028-0.018C169.96,78.516,168.246,77.563,166.525,76.615z
		 M173.438,65.643c2.117,1.051,3.955,2.464,5.654,4.063c-1.117-0.609-2.242-1.216-3.355-1.853c-1.639-0.929-3.336-1.782-5.038-2.584
		c-2.229-1.048-4.39-2.261-6.646-3.249c-7.57-3.323-15.4-5.683-22.041-10.794c-2.522-1.938-4.852-4.093-6.91-6.482
		c2.513,2.472,5.271,4.659,8.297,6.571c4.479,2.823,9.379,5.063,14.233,7.152C162.936,60.751,168.264,63.072,173.438,65.643z
		 M159.768,57.497c-5.207-1.822-10.306-3.706-15.074-6.511c-3.936-2.313-7.541-5.185-10.76-8.426
		c-0.002-0.019-0.002-0.036-0.002-0.056c3.279,3.057,7.188,5.543,11.039,7.515c7.368,3.773,15.32,6.469,22.774,10.109
		C165.1,59.208,162.41,58.424,159.768,57.497z M166.963,57.311c-4.684-2.113-9.583-3.758-14.313-5.772
		c-4.892-2.085-9.742-4.381-14.09-7.478c-0.066-0.049-0.131-0.099-0.199-0.147c3.281,2.118,6.873,3.729,10.473,5.316
		c5.287,2.333,10.713,4.351,15.902,6.904C165.493,56.506,166.23,56.898,166.963,57.311z M140.057,41.143
		c5.453,3.321,11.356,5.783,17.057,8.628c1.541,0.771,3.072,1.589,4.585,2.445c-3.601-1.546-7.271-2.939-10.863-4.485
		c-7.073-3.044-14.604-7.052-19.292-13.224c-0.072-0.157-0.146-0.313-0.225-0.468C133.762,36.882,136.918,39.23,140.057,41.143z
		 M131.033,61.25c0.302,0.334,0.609,0.664,0.926,0.988c1.154,1.195,2.376,2.261,3.652,3.22c1.375,1.537,2.898,2.895,4.539,4.102
		c0.074,0.061,0.145,0.123,0.222,0.183c0.599,0.476,1.196,0.948,1.87,1.242c1.4,0.879,2.863,1.669,4.38,2.382
		c-0.376-0.096-0.75-0.192-1.127-0.296c-4.022-1.837-7.745-4.474-10.947-7.489c-1.31-1.233-2.507-2.569-3.61-3.978
		C130.971,61.485,131.001,61.368,131.033,61.25z M130.133,64.207c0.895,1.096,1.818,2.164,2.781,3.193
		c0.009,0.012,0.021,0.022,0.034,0.035c-1.078-0.785-2.101-1.637-3.056-2.548C129.975,64.662,130.055,64.434,130.133,64.207z
		 M144.143,80.625c3.69,1.21,7.441,2.193,11.209,3.111c-1.898-0.293-3.791-0.611-5.674-0.996
		c-7.794-1.597-15.346-4.516-21.031-10.248C133.092,76.359,139.064,78.96,144.143,80.625z M124.765,57.656
		c0.13-0.221,0.257-0.446,0.386-0.672c0.195,0.343,0.391,0.687,0.598,1.026c-0.194,0.355-0.395,0.709-0.602,1.057
		c-0.213-0.338-0.416-0.682-0.617-1.032C124.607,57.909,124.688,57.784,124.765,57.656z M125.07,74.057
		c1.383,1.6,3.036,3.036,4.604,4.353c2.204,1.853,4.646,3.344,7.26,4.544c1.313,0.605,2.68,1.096,4.063,1.53
		c1.793,0.562,3.522,0.651,5.366,0.907c0.945,0.129,1.898,0.226,2.851,0.313c3.777,0.802,7.615,1.366,11.396,1.939
		c0.688,0.104,3.468,0.514,3.596,0.596c1.878,0.337,10.275,1.736,12.602,2.313c3.856,0.956,7.666,2.309,11.141,4.259
		c1.101,0.617,2.16,1.279,3.179,1.981c1.694,1.814,3.157,3.871,4.418,5.982c0.642,2.188,1.146,4.437,1.715,6.612
		c0.783,3.028,1.479,6.084,2.128,9.143c0.18,0.845,0.375,1.688,0.58,2.528c0.292,2.277,0.549,4.657,0.749,7.128
		c0.185,2.27,0.323,4.674,0.408,7.187c-0.166-0.021-0.299-0.037-0.304-0.037c-0.555,0.086-1.041,0.296-1.569,0.483
		c-0.64,0.226-1.28,0.428-1.928,0.623c-1.444,0.44-2.908,0.814-4.382,1.154c-1.623,0.377-3.273,0.702-4.918,0.961
		c-0.805,0.127-1.688,0.139-2.471,0.36c-1.383-12.808-12.171-22.889-25.365-23.061c-10.699-0.14-19.984,6.276-24.029,15.513
		c-3.413-2.807-7.647-3.944-12.115-3.096c-4.348,0.822-8.382,3.062-11.881,5.791c-3.308-10.283-12.892-17.809-24.276-17.958
		c-13.455-0.176-24.68,10.019-26.049,23.154c-1.923-0.938-3.832-1.928-5.762-2.848c-1.529-0.731-3.18-1.63-4.885-2.263
		c-1.105-1.476-1.986-2.965-2.571-4.826c-0.773-2.467-0.976-5.084-0.978-7.654c-0.001-3.096,0.378-6.198,0.994-9.246
		c0.177-0.545,0.363-1.083,0.559-1.613l0.015-0.033c0.005-0.015,0.01-0.03,0.014-0.045c1.396-3.74,3.345-7.141,5.742-10.233
		c1.34-1.323,13.976-11.141,33.237-12.605c3.813-0.292,7.646-0.94,11.443-1.646c0.954-0.061,1.906-0.132,2.855-0.236
		c1.85-0.207,3.582-0.252,5.391-0.767c1.391-0.397,2.77-0.852,4.103-1.423c2.642-1.134,5.123-2.557,7.37-4.352
		C121.359,77.883,123.494,76.112,125.07,74.057z M48.347,153.365c0.257,1.261,0.526,2.519,0.814,3.771
		c-0.538-0.464-1.063-0.946-1.56-1.471c-0.252-0.265-0.493-0.537-0.734-0.813c0.207-0.682,0.265-1.633,0.278-2.471
		C47.515,152.753,47.889,153.127,48.347,153.365z M48.225,131.629c0.291,0.686,0.633,1.336,1.029,1.941
		c-0.209-0.045-0.42-0.086-0.633-0.117C48.492,132.859,48.359,132.25,48.225,131.629z M47.771,95.361
		c0.236-0.4,0.479-0.797,0.723-1.192c0.006,0.01,0.013,0.02,0.016,0.024C48.262,94.581,48.012,94.969,47.771,95.361z M90.77,75.396
		c-2.803,0.718-5.633,1.36-8.393,2.24c-0.322,0.104-0.647,0.208-0.972,0.316c1.07-0.586,2.145-1.165,3.216-1.749
		c4.641-1.121,9.382-2.023,13.969-3.248C96.067,74.021,93.361,74.731,90.77,75.396z M104.842,81.309
		c5.121-1.53,11.159-3.976,15.705-7.724c-5.831,5.582-13.46,8.302-21.29,9.693c-1.894,0.336-3.794,0.605-5.703,0.847
		C97.348,83.306,101.121,82.422,104.842,81.309z M77.381,79.492c-0.008,0.007-0.02,0.014-0.029,0.018
		c-3.894,1.456-7.616,3.313-11.182,5.521c1.153-1.194,2.362-2.326,3.627-3.406c0.121-0.104,0.246-0.2,0.367-0.303
		c0.949-0.496,1.916-0.969,2.906-1.408c3.037-1.347,6.235-2.348,9.501-3.197C80.828,77.617,79.09,78.524,77.381,79.492z
		 M78.49,69.655c-4.289,1.782-8.396,3.968-12.249,6.557c-3.458,2.328-6.647,5.098-9.612,8.027c-1.551,1.535-3.055,3.116-4.522,4.731
		c-0.142,0.155-0.285,0.31-0.429,0.463c2.251-3.146,4.541-6.253,7.375-8.91c2.935-2.755,6.17-5.134,9.695-7.08
		c3.442-1.901,6.98-3.379,10.738-4.539c1.248-0.386,2.51-0.731,3.776-1.064C81.66,68.407,80.066,69,78.49,69.655z M63.971,85.184
		c-0.784,0.86-1.7,1.803-2.269,2.86c-2.081,1.528-4.087,3.189-5.969,4.98C58.158,90.048,60.916,87.437,63.971,85.184z M120.17,65.32
		c-1.174,1.126-2.439,2.167-3.788,3.095c0.007-0.011,0.021-0.021,0.034-0.034c1.205-1.224,2.365-2.5,3.467-3.826
		C119.975,64.811,120.072,65.066,120.17,65.32z M118.967,61.728c0.025,0.095,0.055,0.193,0.082,0.288
		c-1.277,1.612-2.679,3.127-4.22,4.506c-3.281,2.93-7.073,5.469-11.144,7.201c-0.375,0.091-0.754,0.181-1.131,0.266
		c1.533-0.673,3.019-1.424,4.44-2.267c0.683-0.276,1.292-0.733,1.903-1.194c0.076-0.057,0.15-0.118,0.229-0.176
		c1.666-1.165,3.225-2.481,4.641-3.98c1.299-0.927,2.548-1.96,3.736-3.122C118.008,62.755,118.493,62.246,118.967,61.728z
		 M117.311,55.198c0.057,0.231,0.124,0.459,0.185,0.687c-0.262,0.342-0.526,0.683-0.797,1.015c-3.046,3.1-6.708,5.688-10.294,7.854
		c-0.357,0.215-0.712,0.425-1.072,0.634c-2.177,0.958-4.453,1.725-6.771,2.375c-1.689,0.473-3.392,0.89-5.101,1.281
		c2.811-1.003,5.579-2.122,8.253-3.478c3.645-1.847,6.942-3.935,10.1-6.563c1.782-1.484,3.61-2.951,5.328-4.524
		C117.197,54.719,117.25,54.957,117.311,55.198z M111.648,55.958c0.977-0.748,1.926-1.538,2.839-2.389
		c0.719-0.667,1.431-1.359,2.121-2.074c0.039,0.27,0.077,0.538,0.118,0.804C115.129,53.697,113.377,54.924,111.648,55.958z
		 M92.686,50.125c5.772-2.693,11.737-4.999,17.274-8.178c2.509-1.438,5.034-3.147,7.224-5.166c-0.07,0.213-0.137,0.424-0.203,0.637
		c-4.826,4.976-11.586,8.281-17.965,10.832c-3.633,1.452-7.34,2.748-10.978,4.202C89.572,51.633,91.121,50.856,92.686,50.125z
		 M84.896,56.287c5.258-2.416,10.73-4.292,16.079-6.486c3.638-1.492,7.271-3.008,10.605-5.04c-0.067,0.046-0.134,0.097-0.203,0.142
		c-4.425,2.98-9.337,5.15-14.282,7.107c-4.777,1.892-9.719,3.405-14.453,5.396C83.381,57.015,84.129,56.639,84.896,56.287z
		 M104.819,50.692c3.876-1.859,7.827-4.226,11.173-7.172c0,0.018,0,0.036,0,0.056c-3.289,3.135-6.953,5.893-10.924,8.091
		c-4.842,2.679-9.99,4.427-15.238,6.114c-2.668,0.856-5.375,1.57-8.045,2.421C89.333,56.756,97.35,54.271,104.819,50.692z
		 M75.949,65.567c5.241-2.435,10.627-4.615,15.988-6.761c4.908-1.963,9.865-4.075,14.412-6.779c3.081-1.83,5.895-3.944,8.469-6.352
		c-2.117,2.337-4.503,4.427-7.074,6.302c-6.777,4.937-14.664,7.088-22.317,10.212c-2.28,0.928-4.472,2.086-6.729,3.074
		c-1.721,0.756-3.441,1.566-5.103,2.452c-1.133,0.605-2.269,1.183-3.405,1.763C71.93,67.924,73.807,66.561,75.949,65.567z
		 M70.873,38.173c-2.889,3.169-5.603,6.495-8.165,9.896c-2.889,3.832-5.509,7.842-7.903,11.982
		c-2.787,4.157-5.301,8.522-7.442,13.058C51.813,59.588,59.98,47.368,70.873,38.173z M36.929,114.236
		c0.421-0.022,0.827,0.013,1.22,0.092c0.172,2.139,0.532,4.259,1.018,6.297c0.035,0.136,0.07,0.271,0.104,0.407
		c0.172,1.06,0.377,2.098,0.589,3.097c0.563,2.654,1.412,5.309,2.67,7.719c0.689,1.323,1.48,2.775,2.566,3.87
		c0.201,0.386,0.416,0.761,0.653,1.121c0.329,2.917,0.737,5.825,1.183,8.722c0.271,1.746,0.573,3.484,0.901,5.219
		c-2.302-1.521-3.938-3.676-5.681-5.773c-0.124-0.165-0.25-0.326-0.371-0.488c-1.324-1.789-2.487-3.711-3.477-5.717
		C35.813,131.171,34.652,122.065,36.929,114.236z M43.476,148.586c-0.151,0.284-0.313,0.561-0.47,0.837
		c-0.863-1.456-1.638-2.965-2.338-4.506c0.814,1.272,1.77,2.505,2.838,3.624C43.494,148.557,43.484,148.57,43.476,148.586z
		 M43.958,162.221c-0.381-1.402-0.566-2.853-0.542-4.303c0.007-0.57,0.098-1.121,0.205-1.668c0.219,0.283,0.441,0.561,0.671,0.835
		c-0.175,1.918-0.34,3.851-0.058,5.769c0.029,0.23,0.078,0.479,0.14,0.739C44.222,163.141,44.083,162.682,43.958,162.221z
		 M45.384,152.994c-0.475-0.643-0.93-1.296-1.368-1.961c0.137-0.494,0.281-0.985,0.41-1.481c0.059,0.063,0.112,0.125,0.167,0.188
		c0.405,0.447,0.817,0.895,1.239,1.333C45.639,151.709,45.492,152.328,45.384,152.994z M48.82,199.739
		c-2.449-5.48-3.085-11.21-2.727-17.087c0.004,0.093,0.006,0.187,0.01,0.281c0.309,7.86,2.994,16.09,6.457,23.264
		C51.092,204.186,49.838,202.018,48.82,199.739z M68.143,213.492c-0.734-0.544-1.445-1.122-2.139-1.715
		c-3.389-2.895-6.334-6.344-8.857-10.006c-2.1-3.047-4.109-6.478-5.46-10.1c-0.744-2.949-1.264-5.953-1.681-8.971
		c0.01-0.324,0.025-0.646,0.047-0.973c0.658,2.732,1.439,5.434,2.355,8.09c2.067,6.005,4.921,11.906,8.828,16.937
		c1.895,2.435,4.107,4.677,6.684,6.386c0.332,0.223,0.672,0.43,1.016,0.633C68.67,213.686,68.405,213.59,68.143,213.492z
		 M68.73,209.66c-2.1-1.524-3.951-3.373-5.609-5.36c-1.971-2.366-3.609-4.967-5.01-7.694c0.849,1.299,1.729,2.563,2.626,3.785
		c2.481,3.389,5.279,6.539,8.374,9.379c0.24,0.222,0.484,0.435,0.727,0.646C69.463,210.177,69.093,209.924,68.73,209.66z
		 M70.522,220.743c0.128,0.014,0.26,0.021,0.389,0.032c0.15,0.1,0.301,0.191,0.453,0.283
		C71.08,220.959,70.799,220.854,70.522,220.743z M74.569,212.869c-1.399-1.032-2.729-2.148-4.01-3.328
		c-3.136-2.882-5.967-6.113-8.529-9.51c-3.397-4.502-6.14-9.363-8.353-14.489c-0.338-1.085-0.653-2.178-0.951-3.274
		c1.252,3.33,2.761,6.562,4.525,9.644c3.002,5.245,6.736,10.069,10.936,14.405c2.264,2.334,4.666,4.492,7.159,6.572
		c0.253,0.213,0.511,0.424,0.769,0.633C75.6,213.311,75.086,213.092,74.569,212.869z M77.137,203.871
		c-2.732-2.844-5.174-5.913-7.671-8.96c-1.562-1.904-3.06-3.858-4.513-5.847c-0.535-0.965-1.061-1.938-1.571-2.918
		c2.944,3.416,5.951,6.783,8.697,10.369c1.783,2.326,3.689,4.852,5.248,7.541C77.246,203.979,77.184,203.918,77.137,203.871z
		 M79.504,222.497c0.717-0.11,1.429-0.271,2.121-0.464c0.165-0.049,0.339-0.094,0.515-0.145c0.063,0,0.13,0.004,0.192,0.006
		c0.064,0.103,0.131,0.199,0.199,0.299C81.536,222.389,80.521,222.484,79.504,222.497z M83.063,208.25
		c-0.278-0.994-0.69-1.973-1.036-2.918c-0.602-1.657-1.256-3.297-1.957-4.913c-1.413-3.253-3.137-6.349-4.919-9.407
		c-0.72-1.238-1.476-2.472-2.26-3.687c0.905,1.073,1.784,2.173,2.62,3.309c2.063,2.802,3.769,5.847,5.263,8.985
		c0.788,1.66,1.417,3.384,1.892,5.161c0.335,1.263,0.464,2.521,0.554,3.786C83.17,208.461,83.115,208.355,83.063,208.25z
		 M89.73,203.122c-0.459-2.22-1.096-4.425-1.889-6.579c0.796,1.604,1.5,3.241,2.06,4.93c0.914,2.738,1.498,5.693,1.444,8.588
		c-0.031,1.613-0.285,3.239-0.789,4.773c0.049-0.742,0.079-1.484,0.096-2.229C90.725,209.411,90.379,206.243,89.73,203.122z
		 M113.313,222.838c-0.049-0.074-0.116-0.135-0.195-0.161c-0.023-0.071-0.045-0.141-0.064-0.214
		c-0.457-1.577-0.688-3.316-0.681-5.039c0.019-0.201,0.038-0.404,0.058-0.604c0.082,0.027,0.16,0.055,0.238,0.082
		c0.265,0.091,0.536,0.171,0.801,0.257C113.184,219.076,113.094,220.986,113.313,222.838z M115.476,217.74
		c0.204,0.055,0.407,0.102,0.613,0.15c-0.142,1.061-0.265,2.12-0.346,3.188c-0.021,0.289-0.042,0.596-0.062,0.908
		C115.461,220.607,115.414,219.18,115.476,217.74z M121.091,218.857c0.429,0.063,0.859,0.119,1.287,0.174
		c0.006,0.186,0.014,0.376,0.019,0.558c0.042,2.093-0.094,4.253,0.063,6.351c-0.082-0.15-0.156-0.297-0.215-0.438
		c-0.484-1.17-0.715-2.441-0.894-3.688C121.209,220.826,121.131,219.842,121.091,218.857z M128.83,222.969
		c0.009-1.101-0.002-2.234-0.064-3.373c0.441,0.021,0.885,0.038,1.33,0.053c0.018,0.975,0.004,1.941-0.047,2.881
		c-0.07,1.383-0.354,2.921-1.173,4.078C128.939,225.085,128.824,223.563,128.83,222.969z M133.066,219.677
		c0.145,0,0.281,0,0.422-0.002c0.006,0,0.011-0.002,0.014-0.002c0.018,1.304,0.146,2.599,0.338,3.845
		c0.037,0.238,0.079,0.479,0.128,0.719c-0.062,0.574-0.145,1.146-0.272,1.703C133.835,223.902,133.532,221.782,133.066,219.677z
		 M136.544,220.145c0.198,0.933,0.299,1.888,0.341,2.822c0.029,0.723-0.008,1.409-0.098,2.069
		C136.873,223.455,136.766,221.799,136.544,220.145z M119.627,227.555c-0.922-1.013-1.521-2.332-1.895-3.66
		c-0.056-0.893-0.055-1.793-0.047-2.684c0.01-0.979,0.062-1.955,0.133-2.93c0.257,0.054,0.511,0.105,0.766,0.154
		c0,0.938,0.033,1.854,0.076,2.722c0.087,1.726,0.257,4.502,1.246,6.413C119.813,227.566,119.72,227.561,119.627,227.555z
		 M109.954,227.107c0.271-0.137,0.557-0.303,0.845-0.5c0.043,0.188,0.096,0.367,0.15,0.541
		C110.617,227.134,110.285,227.122,109.954,227.107z M160.762,195.699c-2.26,3.258-3.955,6.978-5.131,10.492
		c-1.836,5.481-2.755,12.221-0.05,17.479c0.159,0.562,0.378,1.097,0.606,1.565c0.283,0.572,0.646,1.072,1.06,1.515
		c-3.804,0.705-7.694,1.062-11.571,1.289c-2.143,0.126-4.289,0.188-6.438,0.208c0.393-1.628,0.49-3.355,0.41-4.943
		c-0.072-1.447-0.381-2.834-0.826-4.197c2.555-0.502,5.045-1.313,7.482-2.353c1.752-0.746,1.734-3.155,0.047-3.954
		c-1.05-0.492-2.263-0.525-3.072,0.191c-1.057,0.395-2.125,0.752-3.203,1.061c-2.902,0.836-5.87,1.321-8.869,1.564
		c-2.174,0.01-4.348-0.094-6.517-0.241c-3.593-0.247-7.206-0.662-10.716-1.479c-1.827-0.426-3.637-0.963-5.32-1.75
		c-0.629-0.311-1.244-0.66-1.774-1.107c-0.028-0.025-0.057-0.05-0.083-0.074c-0.184-0.064-0.365-0.131-0.545-0.201
		c-0.392-0.277-0.771-0.572-1.138-0.896c-0.263-0.229-0.765-0.028-0.71,0.35c0.443,3.089,3.713,4.925,6.581,6.064
		c-0.127,0.758-0.206,1.521-0.228,2.291c-0.353,2.303-0.492,4.631-0.166,6.901c-0.461,0.383-0.975,0.7-1.504,0.979
		c-0.414,0.215-0.856,0.398-1.314,0.559c-2.832-0.133-5.662-0.316-8.473-0.644c-3.911-0.456-7.907-1.261-11.386-3.021
		c3.118-2.265,4.836-5.701,5.126-9.516c0.105-0.668,0.18-1.328,0.222-1.951c0.237-3.48-0.614-6.922-1.857-10.143
		c-1.473-3.813-3.467-7.359-5.768-10.697c-0.005-0.043-0.012-0.084-0.017-0.126c-0.24-0.313-0.483-0.625-0.729-0.938
		c-0.408-0.568-0.827-1.131-1.251-1.688c0.213,0.15,0.438,0.286,0.676,0.404c0.79,0.506,1.615,0.959,2.465,1.367
		c0.316,0.183,0.635,0.364,0.955,0.537c3.637,1.963,7.859,3.435,11.943,4.094c4.042,0.651,8.266,0.162,11.976-1.613
		c2.063-0.988,3.829-2.469,5.618-3.881c0.846-0.674,1.713-1.321,2.609-1.926c0.189-0.127,0.397-0.242,0.607-0.351
		c1.141-0.384,2.318-0.688,3.486-0.884c2.167,0.172,4.287,1.168,6.208,2.096c1.98,0.958,3.895,2.051,5.94,2.865
		c1.95,0.773,3.972,1.361,6.009,1.863c4.12,1.019,8.398,1.464,12.635,1.136c3.498-0.271,6.448-1.373,9.201-3.22
		c-0.863,1.111-1.634,2.285-2.316,3.385C161.34,194.666,161.045,195.182,160.762,195.699z M164.031,195.499
		c0.888-1.272,1.787-2.535,2.746-3.757c0.664-0.844,1.352-1.74,2.072-2.622c1.653-1.738,3.432-3.354,5.224-4.966
		c0.071-0.062,0.136-0.127,0.206-0.189c3.47-2.893,6.783-6.063,10.035-9.163c2.986-2.85,5.885-5.793,8.528-8.96
		c-1.411,2.04-2.966,3.98-4.614,5.854c-2.666,3.016-5.269,6.043-8.123,8.884c-5.775,5.744-12.969,11.218-17.625,17.993
		C162.951,197.52,163.467,196.494,164.031,195.499z M183.451,184.984c1.234-0.901,2.451-1.838,3.639-2.805
		c-0.215,0.422-0.387,0.861-0.473,1.331c-0.172,0.154-0.342,0.313-0.514,0.466c-2.987,2.635-6.414,4.646-9.656,6.933
		c-3.165,2.235-6.332,4.461-9.254,7.011c-0.914,0.794-1.789,1.615-2.621,2.477C169.992,194.182,176.813,189.825,183.451,184.984z
		 M163.402,211.752c0.932-3.471,2.961-6.318,5.429-8.857c1.04-1.074,2.144-2.09,3.28-3.068c-2.946,3.428-5.691,7.085-7.704,11.145
		c-0.746,1.502-1.388,3.131-1.786,4.807C162.758,214.415,163.052,213.061,163.402,211.752z M167.754,210.632
		c-1.109,2.093-1.87,4.308-2.545,6.569c-0.275,0.929-0.523,1.865-0.755,2.805c-0.188-0.068-0.377-0.142-0.562-0.221
		c0.813-7.842,5.846-14.314,11.023-20.15c2.311-2.609,4.738-5.113,7.158-7.625c1.283-1.043,2.556-2.1,3.82-3.184
		c0.191-0.162,0.375-0.333,0.563-0.498c-0.313,0.463-0.631,0.919-0.963,1.37c-2.699,3.685-6.188,6.685-9.389,9.903
		C172.827,202.902,169.936,206.508,167.754,210.632z M180.393,199.247c-0.846,1.103-1.72,2.183-2.625,3.226
		c0.465-0.582,0.937-1.162,1.402-1.733C179.575,200.242,179.984,199.745,180.393,199.247z M183.727,202.162
		c-0.531,0.863-1.074,1.716-1.635,2.557c-1.751,2.635-3.686,5.162-5.795,7.527C178.732,208.854,181.338,205.591,183.727,202.162z
		 M177.051,214.415c2.25-2.672,4.264-5.526,6.107-8.497c1.754-2.831,3.275-5.911,4.613-8.984c-0.819,2.168-1.754,4.295-2.797,6.366
		C182.922,207.366,180.423,211.328,177.051,214.415z M187.236,206.766c-1.486,2.994-3.721,5.525-6.223,7.721
		c-0.031,0.027-0.063,0.054-0.091,0.076c0.713-0.977,1.399-1.963,2.086-2.92c1.464-2.063,2.757-4.256,3.935-6.494
		c0.697-1.323,1.334-2.678,1.93-4.055C188.32,202.984,187.773,204.874,187.236,206.766z M185.448,179.529
		c0.89-0.957,1.768-1.926,2.622-2.914c2.525-2.914,4.648-6.154,6.676-9.43c0.854-1.379,1.671-2.772,2.443-4.187
		c-0.524,1.444-1.133,2.856-1.808,4.235C193.064,171.984,189.732,176.393,185.448,179.529z M197.688,185.389
		c-0.537,4.319-1.199,8.643-2.479,12.812c-0.063,0.202-0.129,0.401-0.193,0.604c-0.51,1.032-1.047,2.053-1.607,3.06
		c0.683-2.345,1.222-4.738,1.708-7.116c1.495-7.354,2.194-14.921,4.082-22.196C198.704,176.832,198.223,181.113,197.688,185.389z
		 M199.083,150.273c-0.076,0.175-0.155,0.347-0.231,0.517c0.434-1.058,0.869-2.108,1.332-3.146
		c-0.113,0.313-0.223,0.627-0.336,0.938C199.561,149.131,199.334,149.723,199.083,150.273z M202.18,169.665
		c-0.424,3.729-1.004,7.438-1.826,11.099c-0.22,0.965-0.463,1.924-0.722,2.879c0.347-2.85,0.653-5.703,0.974-8.551
		c0.373-3.342,0.744-6.683,1.11-10.023c0.206-1.91,0.421-3.821,0.647-5.729c0.127-1.063,0.193-2.12,0.248-3.179
		c0.022-0.163,0.045-0.326,0.065-0.489c-0.026,0.614-0.057,1.229-0.081,1.845c-0.121,3.053-0.178,6.096-0.424,9.135
		c0.186-0.92,0.354-1.846,0.521-2.774C202.561,165.807,202.396,167.738,202.18,169.665z M205.465,148.734
		c-0.035,0.363-0.046,0.732-0.035,1.1c-0.014,0.018-0.023,0.036-0.037,0.053c-0.02-0.369-0.055-0.738-0.076-1.105
		c-0.049-0.827-0.114-1.622-0.238-2.432c0.173-0.14,0.341-0.281,0.507-0.428c-0.103,0.834-0.104,1.717,0.113,2.503
		C205.578,148.465,205.486,148.563,205.465,148.734z M205.803,161.771c-0.023-0.504-0.047-1.012-0.059-1.519
		c0.02,0.069,0.049,0.136,0.076,0.198c-0.021-0.428-0.035-0.854-0.041-1.277c-0.021,0.084-0.038,0.174-0.053,0.264
		c-0.004-0.133-0.006-0.268-0.006-0.401c-0.013-1.072,0.047-2.113,0.143-3.14c0.031,0.912,0.046,1.824,0.049,2.736
		C205.92,159.684,205.877,160.73,205.803,161.771z M207.541,143.932c-0.001,0.002-0.001,0.004-0.003,0.006
		c-0.005,0.024-0.007,0.047-0.011,0.069c-0.311,0.472-0.305,1.134-0.346,1.683c-0.045,0.553-0.082,1.104-0.123,1.656
		c-0.102,0.17-0.203,0.342-0.309,0.508c0.096-0.928-0.057-1.916-0.257-2.78c0.364-0.369,0.709-0.759,1.047-1.151
		C207.541,143.923,207.541,143.927,207.541,143.932z M208.947,143.848c-0.096,0.202-0.191,0.408-0.293,0.608
		c-0.006-0.095-0.014-0.19-0.021-0.284c-0.021-0.271-0.247-0.391-0.446-0.359c-0.06-0.1-0.156-0.148-0.258-0.156
		c-0.054-0.016-0.105-0.018-0.156-0.006c0.494-0.604,0.953-1.234,1.391-1.887C209.076,142.458,208.996,143.15,208.947,143.848z
		 M209.682,142.256c-0.008-0.152-0.01-0.307-0.02-0.461c-0.008-0.193-0.232-0.284-0.375-0.219c0.621-0.952,1.189-1.942,1.721-2.958
		c0.125-0.239,0.246-0.481,0.366-0.726C210.873,139.376,210.307,140.832,209.682,142.256z M214.736,123.477
		c-0.123,0.782-0.256,1.575-0.394,2.369c-0.604,1.859-0.967,3.805-1.538,5.678c-0.621,2.029-1.373,4.027-2.229,5.971
		c-1.144,2.596-2.644,5.086-4.527,7.229c-0.142,0.02-0.272,0.108-0.31,0.271c-0.006,0.031-0.014,0.064-0.018,0.098
		c-0.242,0.26-0.484,0.521-0.738,0.771c-0.015-0.35-0.026-0.701-0.043-1.055c0.07-0.664,0.145-1.328,0.224-1.99
		c0.418-3.467,1.004-6.908,1.577-10.348c0.345-2.059,0.676-4.117,0.943-6.183c0.104-0.386,0.207-0.771,0.301-1.158
		c0.238-0.992,0.466-2.025,0.668-3.078c0.037-0.135,0.076-0.271,0.113-0.406c0.654-2.453,1.133-5.041,1.308-7.639
		c0.104-0.607,0.198-1.218,0.28-1.828c-0.018-2.225-0.049-4.447-0.112-6.671c-0.031-1.036-0.064-2.077-0.103-3.119
		c0.105-0.056,0.217-0.103,0.336-0.135c0.961-0.251,1.979,0.337,2.738,0.855c2.087,1.418,2.461,3.679,2.579,6.023
		C216.036,113.871,215.473,118.795,214.736,123.477z"/>
	<path fill="#FFD800" d="M184.88,130.404c0.265,1.271-0.043,2.813,0.517,3.972c0.278,0.571,1.133,0.778,1.453,0.099
		c0.649-1.379,0.074-3.179-0.259-4.597c-0.44-1.875-1.313-3.619-2.378-5.212c-0.451-0.683-1.611,0.063-1.203,0.771
		C183.912,127.007,184.504,128.632,184.88,130.404z"/>
	<path fill="#FFD800" d="M189.133,132.271c0.066,0.266,0.369,0.455,0.637,0.369c2.008-0.631,1.316-4.236,0.863-5.654
		c-0.273-0.854-1.516-0.348-1.285,0.494c0.234,0.854,0.346,1.74,0.219,2.619C189.455,130.867,188.948,131.49,189.133,132.271z"/>
	<path fill="#FFD800" d="M64.614,125.185c-1.048,1.442-1.852,3.008-2.536,4.65c-0.361,0.866-1.283,2.427-0.428,3.226
		c1.055,0.984,1.776-2.36,1.828-2.508c0.578-1.598,1.35-3.134,2.314-4.535C66.322,125.25,65.159,124.435,64.614,125.185z"/>
	<path fill="#FFD800" d="M59.602,126.161c-0.346,0.938-0.633,1.889-0.834,2.868c-0.168,0.816-0.402,1.82,0.129,2.529
		c0.182,0.241,0.582,0.402,0.819,0.112c0.55-0.672,0.483-1.491,0.591-2.319c0.12-0.92,0.377-1.818,0.653-2.703
		C61.238,125.764,59.921,125.284,59.602,126.161z"/>
	<path fill="#FFD800" d="M149.881,196.068c-0.39-0.043-0.781-0.079-1.176-0.111c-0.342-0.215-0.701-0.376-1.075-0.475
		c-0.771-0.361-1.596-0.602-2.456-0.557c-0.004,0-0.006,0.004-0.014,0.004c-3.484-0.496-7.244,0.219-10.6,0.692
		c-6.828,0.959-13.519,3.083-20.463,2.913c-6.283-0.153-12.467-1.529-18.768-1.355c-0.125-0.039-0.248-0.074-0.375-0.117
		c-0.175-0.057-0.292,0.049-0.329,0.185c-0.267,0.101-0.455,0.329-0.481,0.649c-0.148,1.68,0.213,3.189,1.164,4.598
		c0.841,1.246,2.512,2.242,3.725,3.1c1.868,1.319,3.938,2.24,6.072,3.035c4.822,1.795,9.988,2.654,15.111,2.916
		c9.386,0.482,21.306-0.958,27.562-8.865c0.752-0.951,1.289-1.964,1.703-3.031c0.371-0.461,0.621-0.996,0.627-1.631
		c0-0.096-0.004-0.186-0.015-0.272c0.091-0.338,0.175-0.681,0.255-1.028C150.411,196.427,150.175,196.102,149.881,196.068z
		 M132.182,202.256c2.924-0.386,5.848-0.623,8.729-1.287c1.421-0.326,2.809-0.768,4.146-1.348c0.338-0.146,0.769-0.323,1.188-0.541
		c-0.05,0.167-0.099,0.332-0.153,0.494c-0.269,0.218-0.354,0.525-0.308,0.833c-0.358,0.86-0.808,1.685-1.375,2.444
		c-0.604,0.813-1.32,1.506-2.13,2.105c-5.073,3.007-11.771,3.961-17.287,4.085c-5.399,0.121-10.853-0.615-16.055-2.053
		c-2.117-0.587-4.184-1.337-6.16-2.302c-1.348-0.66-2.675-1.358-3.865-2.279c-0.17-0.131-0.344-0.256-0.522-0.381
		c1.268,0.466,2.63,0.697,4.038,0.824c2.726,0.246,5.638,0.219,8.336-0.225c0.503-0.081,0.533-0.804,0.017-0.895
		c-5.002-0.894-10.666,1.115-15.035-2.385c-0.076-0.222-0.127-0.461-0.144-0.723c0.825-0.032,1.655-0.039,2.476-0.023
		c4.692,1.174,9.396,1.436,14.11,1.237c5.576,0.312,10.946-0.69,16.478-1.379c4.859-0.604,9.96-1.683,14.875-1.426
		c0.918,0.049,1.902,0.146,2.818,0.397c-0.612,0.334-1.2,0.818-1.793,1.1c-1.338,0.636-2.783,1.044-4.219,1.391
		c-2.748,0.66-5.561,1.057-8.334,1.583C131.521,201.602,131.701,202.318,132.182,202.256z M147.467,198.589
		c0.025-0.151,0.047-0.304,0.068-0.455c0.045-0.056,0.086-0.114,0.124-0.174c0.134,0.097,0.187,0.155,0.219,0.084
		C147.788,198.242,147.641,198.42,147.467,198.589z"/>
	<path fill="#FFD800" d="M140.434,117.363c0.265-0.249,1.272-0.567,1.713-0.811c0.416-0.225,0.836-0.447,1.263-0.655
		c0.711-0.342,1.42-0.681,2.131-1.025c2.192-1.061,4.362-2.182,6.565-3.224c2.528-1.195,5.181-2.227,7.888-2.941
		c1.298-0.343,2.644-0.612,3.979-0.7c1.506-0.099,2.996,0.268,4.457-0.149c2.313-0.664,2.088-4.543-0.367-4.779
		c-0.125-0.013-0.25-0.019-0.371-0.019c0.009-0.01,0.017-0.019,0.025-0.026c-7.387-0.543-13.975,2.169-20.389,5.593
		c-2.178,1.162-4.326,2.358-6.475,3.57c-0.842,0.476-1.713,0.986-2.396,1.679c-0.633,0.642-0.924,1.648-0.551,2.502
		C138.218,117.084,139.666,118.091,140.434,117.363z"/>
	<path fill="#FFD800" d="M105.178,113.344c-1.311-1.497-2.766-2.848-4.346-4.055c-3.812-2.912-8.397-4.575-13.063-5.526
		c-1.225-0.247-2.377,0.943-2.477,2.079c-0.116,1.35,0.858,2.224,2.076,2.476c4.07,0.841,7.848,2.21,11.201,4.675
		c1.263,0.926,2.422,1.996,3.53,3.099c0.761,0.758,1.474,1.559,2.187,2.363c0.914,1.025,1.798,2.351,3.229,2.603
		c0.66,0.118,1.385-0.327,1.486-1.02c0.19-1.33-0.548-2.38-1.281-3.445C106.938,115.452,106.086,114.384,105.178,113.344z"/>
</g>
</svg>
