<?xml version="1.0" encoding="utf-8"?>
<!-- Generator: Adobe Illustrator 16.0.0, SVG Export Plug-In . SVG Version: 6.00 Build 0)  -->
<!DOCTYPE svg PUBLIC "-//W3C//DTD SVG 1.1//EN" "http://www.w3.org/Graphics/SVG/1.1/DTD/svg11.dtd">
<svg version="1.1" id="Layer_1" xmlns="http://www.w3.org/2000/svg" xmlns:xlink="http://www.w3.org/1999/xlink" x="0px" y="0px"
	 width="250px" height="250px" viewBox="0 0 250 250" enable-background="new 0 0 250 250" xml:space="preserve">
<g>
	<path fill="#41294A" d="M96.261,113.759c0.176-0.188-3.325-8.812-7.844-10.733c-0.864-0.426-1.77-0.754-2.692-0.983
		c-1.451-0.451-2.857-0.771-4.067-0.962c-4.465-0.708-11.582-0.887-16.333,1.632c-0.336-0.244-0.684-0.46-1.034-0.609
		c-0.193-0.082-0.441,0.153-0.325,0.347c0.153,0.26,0.344,0.502,0.546,0.738c-0.687,0.437-1.31,0.942-1.851,1.521
		c-0.567-0.521-1.066-1.11-1.63-1.641c-0.102-0.096-0.306,0.019-0.27,0.157c0.221,0.854,0.738,1.526,1.336,2.161
		c-0.264,0.353-0.499,0.727-0.705,1.127c-0.819-0.564-1.655-1.101-2.541-1.525c-0.17-0.083-0.293,0.146-0.199,0.275
		c0.697,0.978,1.627,1.732,2.596,2.434c0.787,2.193,3.738,3.641,5.598,4.701c2.969,1.695,6.18,2.949,9.502,3.748
		c3.689,0.887,7.549,1.085,11.318,0.729C90.737,116.587,94.062,116.123,96.261,113.759z M66.303,108.42
		c-0.067-0.056-0.146-0.102-0.246-0.128c-0.002-0.001-0.003-0.001-0.005-0.002c-0.1-0.051-0.2-0.102-0.301-0.154
		c-0.045-0.053-0.09-0.105-0.135-0.16c3.284-1.271,7.167-1.754,10.777-1.905c-0.97,0.87-1.676,2.106-2.031,3.318
		c-0.175,0.597-0.197,1.329-0.071,2.051C71.534,110.732,68.87,109.729,66.303,108.42z M79.425,107.62
		c-1.14,1.303-1.543,3.088-1.131,4.633c-0.88-0.13-1.748-0.295-2.61-0.481c-0.28-0.664-0.257-1.46-0.137-2.139
		c0.282-1.587,1.376-2.708,2.612-3.613c0.49-0.008,0.973-0.01,1.445-0.01c0.535,0.021,1.068,0.049,1.6,0.083
		c0.224,0.015,0.453,0.03,0.684,0.05C81.009,106.304,80.157,106.78,79.425,107.62z M84.892,110.294
		c-0.232-0.034-0.411-0.06-0.639-0.176c-0.311-0.163-0.475-0.406-0.685-0.67c-0.468-0.577-0.188-1.388,0.31-1.831
		c-0.115,0.098-0.089,0.074,0.088-0.079c-0.031,0.025-0.058,0.052-0.088,0.079c0.053-0.045,0.129-0.111,0.238-0.205
		c0.237-0.154,0.498-0.238,0.78-0.254c0.206-0.011,0.46,0.039,0.676,0.059c0.384,0.041,0.774,0.369,0.978,0.678
		c0.23,0.352,0.311,0.792,0.22,1.203C86.575,109.979,85.739,110.419,84.892,110.294z M89.997,112.891
		c-0.053,0.005-0.107,0.015-0.16,0.02c-0.404,0.019-0.816,0.01-1.214-0.003c0.46-1.013,0.724-2.147,0.754-2.816
		c0.053-1.134-0.578-2.143-1.534-2.661c-0.059-0.081-0.123-0.155-0.183-0.232c0.724,0.255,1.412,0.568,2.032,0.955
		c0.266,0.855,0.433,1.747,0.508,2.623C90.271,111.566,90.194,112.261,89.997,112.891z M92.187,111.919
		c-0.199,0.211-0.455,0.376-0.729,0.513c0.099-1.026-0.026-2.126-0.349-3.121c0.6,0.644,1.055,1.43,1.336,2.36
		C92.356,111.74,92.276,111.824,92.187,111.919z"/>
	<path fill="#41294A" d="M157.312,105.649c5.533-0.229,11.113,0.437,16.549,1.417c3.244,0.582,6.402,1.467,9.565,2.387
		c2.856,0.829,6.262,2.559,9.248,2.349c0.981-0.07,1.315-1.374,0.576-1.963c-1.311-1.04-2.926-1.323-4.511-1.807
		c-1.719-0.526-3.443-1.033-5.174-1.521c-3.49-0.982-6.975-1.854-10.554-2.446c-5.484-0.909-11.052-1.302-16.602-0.88
		c-10.853,0.826-23.155,5.347-29.787,14.386c-0.183,0.248,0.14,0.504,0.37,0.349c2.094-1.403,4.127-2.86,6.196-4.25
		c-0.172,0.156-0.341,0.313-0.509,0.469c-1.184,0.634-5.417,4.554-4.884,5.594c1.133,2.2,4.445,3.86,6.507,5.039
		c2.623,1.501,5.478,2.569,8.346,3.495c5.622,1.817,11.399,2.538,17.295,2.294c5.977-0.246,18.199-5.18,18.261-5.21
		c-0.066-0.096-0.745-2.291-0.948-2.854c2.814,0.1,6.761-3.364,6.586-3.317c-2.039,0.565-3.668,1.696-5.837,1.981
		c-0.448,0.06-0.898,0.081-1.347,0.082c-0.397-0.676-0.896-1.309-1.457-1.898c2.281,0.008,6.216-0.858,6.914-3.231
		c0.079-0.266-0.153-0.494-0.417-0.449c-1.107,0.192-1.841,0.993-2.853,1.487c-1.23,0.602-2.611,0.754-3.959,0.809
		c-0.396,0.016-0.796,0.008-1.199-0.011c-0.426-0.348-0.863-0.675-1.299-0.982c0.156-0.032,0.313-0.062,0.471-0.098
		c1.673-0.394,4.668-1.212,5.014-3.229c0.027-0.161-0.133-0.324-0.297-0.259c-1.562,0.609-2.796,1.72-4.436,2.262
		c-0.639,0.211-1.297,0.379-1.964,0.52c-0.233-0.147-0.466-0.288-0.69-0.425c-0.278-0.166-0.564-0.324-0.848-0.486
		c1.472-0.667,3.11-1.805,3.422-3.453c0.036-0.191-0.164-0.422-0.362-0.287c-1.581,1.079-2.831,2.226-4.688,2.844
		c-1.314-0.69-2.659-1.333-4.031-1.918c1.113-0.498,2.084-1.233,2.896-2.298c0.144-0.188-0.128-0.425-0.303-0.275
		c-1.235,1.052-2.626,1.635-4.101,1.958c-1.639-0.642-3.301-1.202-4.963-1.672c-4.732-1.336-9.884-2.085-14.76-1.085
		c2.525-1.02,5.154-1.748,7.701-2.724C152.709,105.958,155.001,105.746,157.312,105.649z M169.378,121.818
		c1.09,0.569,2.131,1.324,3.205,1.977c-0.18,0.056-0.358,0.111-0.541,0.16c-1.063,0.283-2.135,0.497-3.215,0.665
		c0.154-0.356,0.277-0.719,0.363-1.071C169.339,122.928,169.396,122.361,169.378,121.818z M165.276,124.511
		c0.954-1.127,1.457-2.56,1.492-4c0.594,0.286,1.179,0.586,1.767,0.881c-0.003,0.64-0.088,1.279-0.269,1.896
		c-0.172,0.589-0.452,1.077-0.782,1.521c-0.493,0.06-0.987,0.112-1.484,0.159c-0.421,0.039-0.843,0.07-1.265,0.1
		C164.925,124.894,165.106,124.711,165.276,124.511z M160.673,119.428c0.014-0.44,0.244-0.939,0.72-1.052
		c0.299-0.072,0.544-0.137,0.852-0.068c0.476,0.104,0.882,0.477,1.027,0.942c0.187,0.598,0.015,1.327-0.56,1.656
		c-0.613,0.353-1.394,0.241-1.799-0.375c-0.096-0.148-0.155-0.312-0.184-0.48c-0.006-0.017-0.018-0.027-0.021-0.043
		c-0.088-0.271-0.067-0.454-0.029-0.732C160.69,119.185,160.688,119.235,160.673,119.428z M153.24,115.785
		c0.362,0.068,0.723,0.144,1.081,0.224c-0.056,0.054-0.115,0.11-0.168,0.167c-2.494,2.73-1.743,6.558,0.754,8.786
		c-0.098-0.005-0.198-0.012-0.298-0.021c-1.163-0.096-2.325-0.229-3.483-0.396c-0.627-0.834-0.889-1.91-0.996-2.928
		c-0.262-2.503,0.967-4.351,2.621-5.91C152.913,115.736,153.079,115.755,153.24,115.785z M149.131,121.634
		c0.005,0.831,0.239,1.794,0.653,2.701c-2.914-0.481-5.8-1.163-8.615-2.008c-3.199-0.96-6.254-2.343-9.426-3.373
		c0.308-0.286,0.611-0.579,0.914-0.872c1.545-0.697,3.063-1.33,4.662-1.829c3.376-0.391,6.727-0.931,10.138-1.022
		c0.563-0.016,1.131-0.012,1.699,0.002c0.811,0.069,1.618,0.17,2.423,0.285C149.937,117.021,149.118,119.521,149.131,121.634z
		 M151.712,113.429c-3.12-0.127-6.298,0.091-9.361,0.633c-1.678,0.119-3.344,0.361-4.941,0.76c0.932-0.387,1.898-0.695,2.863-0.95
		C143.975,112.892,147.912,112.956,151.712,113.429z"/>
	<path fill="#41294A" d="M76.343,96.937c3.573,0.688,7.015,1.864,10.242,3.543c3.87,2.011,6.506,5.071,9.674,7.921
		c0.022-0.236,0.039-0.473,0.061-0.709c-3.373-6.198-11.124-10.011-17.549-11.914c-3.777-1.119-7.712-1.642-11.633-1.908
		c-2.27-0.152-4.548-0.19-6.821-0.236c-2.065-0.042-4.538-0.471-6.342,0.66c-0.459,0.285-0.208,0.921,0.177,1.107
		c1.385,0.675,2.89,0.355,4.402,0.329c2.148-0.038,4.299,0.003,6.447,0.055C68.796,95.87,72.614,96.216,76.343,96.937z"/>
	<path fill="#41294A" d="M189.672,94.378c-5.026-3.921-10.271-7.827-16.193-10.292c-5.457-2.271-11.014-2.949-16.888-2.479
		c-6.184,0.495-11.992,2.606-17.43,5.499c-2.239,1.191-4.25,2.73-6.152,4.394c-1.475,1.291-3.288,3.034-3.842,4.964
		c-0.133,0.465,0.406,0.832,0.812,0.695c1.761-0.593,3.283-1.994,4.858-2.971c1.949-1.204,4.011-2.229,6.098-3.174
		c4.76-2.158,10.046-3.084,15.228-3.354c4.829-0.251,9.806,0.723,14.254,2.578c5.406,2.254,9.886,6.038,14.503,9.54
		C188.59,102.565,193.343,97.239,189.672,94.378z"/>
	<path fill="#41294A" d="M129.06,123.863c-0.963-1.025-1.773-2.15-2.416-3.402c-0.09-0.178-0.35-0.117-0.338,0.086
		c0.152,2.729,2.656,5.315,4.956,6.549c0.261,0.14,0.536-0.185,0.376-0.425C130.927,125.599,129.936,124.792,129.06,123.863z"/>
	<path fill="#41294A" d="M94.516,117.06c-1.113,0.83-2.361,1.432-3.677,1.872c-1.344,0.447-2.729,0.367-4.114,0.518
		c-0.271,0.028-0.364,0.399-0.073,0.49c2.865,0.885,6.116-0.625,8.111-2.631C94.907,117.163,94.671,116.944,94.516,117.06z"/>
	<path fill="#41294A" d="M97.673,194.796c-0.066-0.061-0.133-0.119-0.198-0.181c-0.14-0.137-0.442-0.009-0.323,0.196
		c0.006,0.011,0.013,0.021,0.021,0.032c-0.172,0.022-0.344,0.042-0.511,0.08c-0.029,0.007-0.054,0.045-0.028,0.071
		c0.327,0.305,0.713,0.556,1.133,0.767c2.125,3.035,5.231,4.804,8.695,5.697c1.722,1.542,4.629,2.56,6.48,3.276
		c2.637,1.024,5.465,1.532,8.289,1.229c5.205-0.557,10.54-5.433,11.705-10.531c0.009-0.038,0.004-0.077,0.005-0.116
		c2.448-2.057,6.149-5.991,5.135-8.838c-0.206-0.576-1.046-0.976-1.623-0.707c-0.753-0.697-1.649-0.515-2.433,0.129
		c-2.748,2.251-5.926,3.955-9.195,5.35c-2.064-4.362-6.201-2.36-8.451,0.699c-1.08-0.739-2.255-1.132-3.681-0.661
		c-1.673,0.555-3.215,2.377-4.236,3.714c-0.062,0.079-0.075,0.172-0.058,0.251c-1.816,0.114-3.635,0.104-5.459,0.022
		C101.244,195.202,99.396,194.701,97.673,194.796z M116.946,195.646c3.754-0.838,7.391-2.15,10.855-3.814
		c1.609-0.774,3.152-1.677,4.648-2.649c0.266-0.171,1.568-1.217,2.475-1.717c-0.491,0.887-0.868,1.895-1.424,2.685
		c-1.024,1.448-2.334,2.679-3.696,3.802c-2.854,2.351-6.337,3.915-9.868,4.937c-6.586,1.904-14.471,1.526-20.246-2.46
		c1.812,0.412,3.854,0.439,5.391,0.488C109.067,197.044,113.064,196.511,116.946,195.646z"/>
	<path fill="#41294A" d="M221.193,154.027c2.063-25.254-0.151-51.298-8.644-75.275c-3.186-8.995-7.342-17.852-12.809-25.693
		c-5.344-7.668-12.082-14.256-19.598-19.777c-7.663-5.631-16.291-9.992-25.264-13.104c-4.484-1.554-9.107-2.717-13.765-3.612
		c-4.613-0.887-9.497-1.497-14.127-0.567c-0.484,0.097-0.605,0.827-0.093,0.992c1.674,0.536,3.38,0.965,5.099,1.345
		c-1.177,0.173-2.368,0.403-3.597,0.694c-0.889,0.211-0.896,1.636,0.09,1.66c14.742,0.373,27.241,7.258,38.499,16.291
		c5.165,4.146,9.917,8.832,14.253,13.883c-3.679-4.104-7.637-7.939-11.771-11.459c-11.232-9.557-24.955-17.039-40.134-16.355
		c-1.382,0.062-2.069,2.258-0.483,2.582c7.263,1.485,14.205,3.218,20.953,6.384c6.156,2.89,11.683,7.016,16.811,11.44
		c10.225,8.823,18.486,19.496,24.729,31.458c1.016,1.946,1.938,3.927,2.785,5.933c-0.08,0.081-0.146,0.173-0.195,0.279
		c-2.333-6.33-5.643-12.278-9.822-17.604c-2.141-2.728-4.492-5.181-7.01-7.425c-3.438-3.983-7.187-7.7-11.208-11.098
		c-5.021-4.24-10.569-7.881-16.466-10.781c-5.117-2.517-11.244-5.044-17.25-5.835c-0.866-0.316-1.74-0.441-2.567-0.221
		c-1.215-0.053-2.42-0.033-3.602,0.096c-1.109,0.121-1.354,1.629-0.354,2.105c1.066,0.51,2.156,0.939,3.259,1.338
		c1.185,1.373,3.271,2.172,4.722,3.091c2.418,1.534,4.792,3.111,7.268,4.552c4.771,2.775,9.511,5.593,14.123,8.627
		c0.508,0.336,1.01,0.679,1.512,1.021c-8.106-4.279-16.338-8.375-24.18-13.107c-0.27-0.164-0.571,0.257-0.32,0.453
		c7.788,6.083,16.631,10.536,25.046,15.683c1.302,0.796,2.593,1.61,3.871,2.44c-0.089-0.052-0.179-0.106-0.268-0.159
		c-6.361-3.693-12.977-6.739-19.491-10.123c-5.976-3.103-11.189-6.718-14.082-12.948c-0.137-0.294-0.556-0.262-0.623,0.064
		c-1.168,5.592,5.047,10.313,9.1,12.987c6.148,4.06,13.041,6.907,19.438,10.551c8.283,4.719,16.355,9.86,22.948,16.827
		c5.625,5.943,9.694,13.113,12.968,20.564c1.904,5.953,3.195,12.102,3.796,18.356c1.263,13.125-0.349,26.339-3.567,39.073
		c-4.016,15.886-10.393,30.795-17.982,45.118c-14.82,19.959-37.645,36.784-63.395,36.613c-12.618-0.084-24.303-5.187-33.63-13.528
		c-8.653-7.738-14.558-18.29-18.614-29.06c-4.518-11.99-6.879-24.51-7.829-37.265c-0.62-8.349-0.534-16.684-0.249-25.021
		c0.379-2.289,0.727-4.582,0.934-6.894c0.105-1.186,0.17-2.368,0.169-3.547c0.285-3.326,0.408-6.679,0.871-9.814
		c0.789-5.36,2.22-10.583,3.098-15.908c0.017-0.046,0.034-0.091,0.048-0.136c0.984-2.817,1.977-5.63,2.998-8.437
		c0.343-0.854,0.695-1.704,1.059-2.547c1.252-0.19,2.445-0.718,3.707-0.997c1.141-0.251,2.311-0.342,3.473-0.409
		c1.758-0.106,3.552-0.024,5.311,0.052c3.74,0.162,7.454,0.729,11.036,1.82c3.137,0.953,6.268,2.412,8.895,4.373
		c1.71,1.276,3.058,2.939,4.06,4.814c0.805,1.501,1.209,3.19,2.191,4.582c0.18,0.255,0.557,0.104,0.649-0.138
		c1.354-3.478-1.151-7.858-3.159-10.588c-2.803-3.811-6.961-6.172-11.321-7.761c-4.295-1.564-8.868-2.351-13.421-2.593
		c-2.769-0.146-5.496-0.188-8.246,0.217c-0.017,0.002-0.034,0.005-0.05,0.008c0.023-0.21-0.216-0.353-0.399-0.27
		c0.124-0.385,0.25-0.769,0.357-1.157c0.43-0.991,0.875-1.977,1.33-2.957c0.32-0.512,0.649-1.016,0.982-1.521
		c1.711-1.504,3.541-2.867,5.519-3.987c7.002-3.969,15.413-4.955,23.055-7.129c7.257-2.064,13.783-6.195,19.974-10.384
		c4.95-3.351,10.756-7.727,12.66-13.658c0.123-0.386-0.432-0.699-0.651-0.33c-3.524,5.933-9.396,10.441-15.306,13.819
		c-6.947,3.972-14.37,6.377-22.18,7.949c-4.406,0.886-8.914,1.705-13.207,3.102c1.416-0.835,2.842-1.654,4.282-2.449
		c6.019-3.325,12.661-5.248,19.187-7.294c5.416-1.698,10.766-3.648,15.734-6.413c4.513-2.509,9.272-6.381,10.947-11.387
		c0.076-0.226-0.05-0.394-0.225-0.456c0.191-0.068,0.382-0.138,0.572-0.205c2.527-0.898,0.925-4.649-1.492-4.25
		c-11.382,1.881-22.18,5.305-31.975,10.893c-0.85,0.324-1.686,0.76-2.434,1.092c-1.227,0.546-2.441,1.126-3.649,1.714
		c6.151-3.968,12.651-7.393,19.421-10.231c5.709-2.394,11.792-3.863,17.381-6.508c0.111-0.052,0.046-0.219-0.063-0.217
		c-0.127,0-0.255,0.009-0.382,0.012c0.101-0.19,0.159-0.412,0.181-0.658c0.021-0.26-0.003-0.481-0.071-0.732
		c-0.118-0.439-0.566-0.889-1.033-0.943c-0.238-0.028-0.454-0.027-0.652-0.002c-0.097-0.137-0.249-0.237-0.434-0.23
		c-5.16,0.19-10.311,1.445-15.293,2.723c-5.744,1.474-11.411,3.291-16.901,5.533c-10.678,4.363-20.798,10.261-29.496,17.86
		c-0.599,0.523-1.188,1.058-1.77,1.598c7.424-8.122,16.297-14.878,26.403-19.597c2.958-1.38,5.968-2.584,9.018-3.65
		c2.533-0.748,5.084-1.443,7.637-2.092c3.818-0.97,7.659-1.84,11.512-2.664c3.226-0.689,6.521-1.18,9.516-2.586
		c0.262-0.123,0.288-0.606-0.065-0.622c-3.659-0.168-7.316,0.798-10.891,1.541c-3.917,0.815-7.821,1.694-11.699,2.681
		c-7.845,1.998-15.598,4.475-22.957,7.867c-7.035,3.243-13.831,7.563-19.085,13.31c-0.275,0.301-0.541,0.615-0.805,0.927
		c-0.26,0.247-0.525,0.489-0.784,0.74c-11.575,11.245-19.465,25.557-24.038,40.92c-3.59,9.075-5.853,18.694-6.845,28.626
		c-0.99,9.912-0.616,19.959,0.45,29.848c0.532,4.944,1.226,9.888,2.294,14.745c1.164,5.285,3.153,10.28,5.083,15.318
		c0.061,0.156,0.168,0.277,0.298,0.368c0.097,0.356,0.197,0.714,0.302,1.072c0.143,0.485,0.752,0.649,1.153,0.392
		c0-0.001,0.001-0.001,0.003-0.003l-0.001,0.002c-0.05,0.092,0.028,0.191,0.124,0.192c1.302,0.019,2.412-0.692,3.582-1.216
		c1.834-0.82,3.758-1.438,5.684-1.998c1.518-0.441,3.076-0.776,4.633-1.038c0.881-0.147,1.707-0.074,2.351-0.5
		c1.327,8.708,3.541,17.236,6.938,25.397c4.709,11.322,12.172,21.694,21.828,29.306c9.84,7.755,21.698,11.668,34.198,11.683
		c10.756,0.012,20.985-3.001,30.35-7.938c-0.463,0.428-0.292,1.162,0.156,1.521c1.74,1.39,3.395,2.882,5.119,4.289
		c0.486,0.398,1.325,0.134,1.62-0.364c1.854-3.152,3.919-6.172,5.97-9.194c0.794-1.173,1.654-2.343,2.424-3.559
		c0.1-0.108,0.2-0.212,0.3-0.319c-0.55,0.849-1.079,1.719-1.608,2.609c-2.035,3.408-3.694,7.028-4.97,10.785
		c-0.206,0.603-0.079,1.411,0.611,1.662c0.16,0.06,0.32,0.099,0.479,0.131c0.374,0.291,0.908,0.349,1.343-0.018
		c2.173-0.433,4.247-2.684,5.6-4.034c3.863-3.86,7.194-8.277,10.439-12.655c1.861-2.51,3.673-5.056,5.445-7.629
		c-3.853,6.813-8.307,13.313-13.449,19.063c-2.383,2.666,1.532,6.489,4.002,3.865c5.145-5.47,9.57-11.771,13.422-18.402
		c-0.691,1.37-1.395,2.735-2.109,4.089c-2.626,4.969-5.673,9.686-7.99,14.814c-0.301,0.666,0.671,1.179,1.152,0.732
		c1.024-0.952,2.006-1.951,2.95-2.993c7.913-8.048,13.034-18.897,17.228-29.181c2.49-6.106,5.008-12.226,7.391-18.397
		c-4.834,17.421-11.827,33.831-20.842,49.537c-0.279,0.486,0.445,0.856,0.791,0.496c13.036-13.523,20.443-31.948,25.458-49.807
		c0.268-0.959,0.53-1.921,0.785-2.882c-0.917,3.521-1.935,7.013-3.053,10.478c-2.238,6.938-4.896,13.738-7.779,20.436
		c-1.386,3.217-2.853,6.401-4.333,9.577c-1.553,3.334-3.746,6.831-4.712,10.41c-0.298,0.503-0.598,1.006-0.906,1.502
		c-0.306,0.492-0.077,1.168,0.484,1.346c1.974,0.621,3.95,1.191,5.993,1.53c0.328,0.054,0.789-0.112,0.961-0.417
		c8.895-15.778,15.925-32.698,20.357-50.271c2.17-8.603,3.535-17.386,4.264-26.222c0.76-9.205,1.544-18.761,0.499-27.972
		c0.019-8.046-0.519-16.092-1.817-23.984c-0.325-1.975-0.708-3.937-1.132-5.892c-0.206-1.516-0.454-3.025-0.757-4.526
		c-2.019-10.013-5.568-19.684-10.123-28.812c-4.607-9.229-11.002-17.698-18.064-25.186c-1.547-1.639-3.163-3.298-4.842-4.926
		c4.549,3.556,8.758,7.544,12.496,11.879c16.101,18.678,22.743,44.699,25.072,68.72c3.431,35.396-3.241,71.052-16.376,103.921
		c-1.968,4.214-4.126,8.354-6.527,12.398c-0.389,0.655,0.036,1.429,0.776,1.507c1.044,0.109,2.152,0.207,3.197,0.091
		c0.227-0.026,0.41-0.105,0.558-0.219c0.661-0.042,1.292-0.406,1.673-1.228C211.372,209.444,218.909,181.993,221.193,154.027z
		 M119.402,29.688c1.271-0.466,2.545-0.926,3.815-1.381c-2.142,1.6-4.125,3.469-6.402,4.907c-2.817,1.783-5.778,3.331-8.867,4.589
		c-0.051,0.021-0.102,0.04-0.152,0.058c2.29-1.083,4.527-2.27,6.666-3.641C115.978,33.249,118.353,31.617,119.402,29.688z
		 M114.608,31.473c-0.582,0.414-1.189,0.813-1.838,1.196c-4.019,2.379-8.521,4.077-12.904,5.644
		c-1.436,0.512-2.879,1.008-4.325,1.493C101.675,36.64,108.109,33.946,114.608,31.473z M24.913,125.983
		c-0.008-0.537-0.021-1.075-0.021-1.612c0.025,0.377,0.06,0.748,0.086,1.123C24.952,125.656,24.937,125.819,24.913,125.983z
		 M57.04,63.505c-2.335,3.447-4.383,7.073-6.116,10.862c-3.165,6.919-5.185,14.275-6.398,21.774
		c-0.168,1.034-0.304,2.065-0.427,3.096c-0.668,3.495-1.107,7.05-1.41,10.606c0.432-8.65,1.576-17.271,3.969-25.596
		c1.9-6.619,4.618-12.905,8.293-18.729c1.069-1.694,2.234-3.323,3.471-4.897c0.002,0.244,0.021,0.485,0.066,0.724
		C57.999,62.071,57.519,62.796,57.04,63.505z M67.218,51.807c-0.799,0.847-1.563,1.713-2.302,2.596
		c-0.036-0.015-0.075-0.021-0.11-0.029c0.078-0.096,0.157-0.192,0.236-0.285c0.998-1.19,2.086-2.301,3.229-3.354
		C67.919,51.089,67.563,51.438,67.218,51.807z M100.365,23.604c2.914-0.949,5.871-1.691,8.837-2.389
		c-2.105,0.541-4.193,1.172-6.215,1.73c-2.07,0.572-4.127,1.199-6.17,1.865C97.995,24.395,99.179,23.989,100.365,23.604z
		 M37.526,166.174c-2.933-12.338-5.259-24.94-6.09-37.593c-0.417-6.36-0.326-12.735,0.174-19.086
		c0.519-6.61,1.479-13.591,3.653-19.872c0.022-0.068,0.006-0.125-0.029-0.17c0.114-0.346,0.227-0.692,0.344-1.036
		c0.093-0.019,0.183-0.049,0.268-0.088c-0.491,1.841-0.936,3.694-1.325,5.561c-2.449,11.733-2.65,23.815-1.734,35.73
		c0.942,12.252,3.65,24.218,5.345,36.363C37.931,166.044,37.728,166.107,37.526,166.174z M41.466,165.062
		c-1.316-11.167-3.611-22.186-4.654-33.388c-1.108-11.903-0.932-23.894,0.926-35.713c1.646-10.469,4.922-20.576,10.037-29.871
		c3.17-5.759,7.186-10.909,11.539-15.786c4.561-4.063,9.586-7.603,14.662-10.98c4.104-2.729,8.674-5.118,12.704-8.043
		c1.858-0.896,3.735-1.757,5.636-2.573c3.881-1.668,7.846-3.119,11.828-4.521c2.359-0.831,4.812-1.488,7.225-2.231
		c0.035,0.024,0.063,0.054,0.106,0.074c0.104,0.046,0.212,0.087,0.319,0.126c-2.635,0.832-5.219,1.854-7.727,2.846
		c-6.221,2.463-12.231,5.486-18.053,8.778C74.108,40.514,62.389,49.067,53.88,59.879c-16.361,20.79-17.19,48.422-15.985,73.677
		c0.501,10.49,1.74,21.096,4.456,31.257C42.054,164.895,41.759,164.976,41.466,165.062z M151.214,221.673
		c-0.063-0.235-0.157-0.451-0.291-0.599c0.009-0.008,0.018-0.014,0.027-0.02c0.114,0.145,0.253,0.271,0.406,0.37
		C151.308,221.508,151.26,221.591,151.214,221.673z M205.492,193.379c0.754-2.299,1.459-4.614,2.124-6.939
		c-4.332,16.46-11.107,32.228-18.743,47.399c-0.258-0.039-0.517-0.072-0.773-0.116c1.97-2.84,3.276-6.285,4.78-9.377
		c1.688-3.467,3.281-6.978,4.818-10.514C200.608,207.14,203.216,200.315,205.492,193.379z M203.573,90.994
		c0.955,2.966,1.642,5.987,2.202,9.049c0.884,4.84,1.046,9.836,0.954,14.784c-0.004-0.509-0.004-1.014-0.014-1.522
		c-0.162-7.915-1.328-15.698-3.449-23.229C203.371,90.382,203.474,90.687,203.573,90.994z M200.07,106.536
		c0.032,0.603,0.05,1.205,0.051,1.805c-0.116-1.009-0.244-2.015-0.39-3.018C199.849,105.728,199.96,106.131,200.07,106.536z
		 M193.091,164.102c-1.441,5.094-3.045,10.156-4.802,15.161c-1.49,3.651-3.163,7.215-5.373,10.522
		c-0.646,0.966-1.305,1.924-1.972,2.878c0.203-0.412,0.408-0.828,0.609-1.239c2.996-6.135,5.776-12.393,8.256-18.762
		C191.02,169.854,192.113,166.997,193.091,164.102z M200.31,80.953c-0.002,0.138,0.006,0.277,0.041,0.413
		c0.005,0.019,0.012,0.036,0.017,0.056c-0.562-1.437-1.159-2.862-1.793-4.272C199.178,78.405,199.755,79.675,200.31,80.953z
		 M181.484,42.548c3.354,3.653,6.347,7.563,9.079,11.65c-5.499-7.161-11.796-13.734-18.684-19.469c-2.959-2.462-6.03-4.8-9.23-6.936
		c0.916,0.442,1.824,0.908,2.727,1.384C171.113,33.167,176.646,37.275,181.484,42.548z"/>
	<path fill="#41294A" d="M180.319,127.062c0.161-0.191-0.01-0.573-0.284-0.457c-2.278,0.966-4.342,1.999-6.853,2.307
		c-0.337,0.04-0.342,0.5,0.002,0.528C175.737,129.659,178.596,129.133,180.319,127.062z"/>
	<path fill="#41294A" d="M65.699,115.357c0.197,0.062,0.322-0.165,0.177-0.305c-1.842-1.783-4.043-3.184-4.606-5.864
		c-0.036-0.161-0.302-0.104-0.287,0.061C61.234,111.865,63.171,114.535,65.699,115.357z"/>
	<path fill="#41294A" d="M111.054,82.915c0.031,0,0.062,0.001,0.093,0.003c4.753,0.105,5.241-6.562,0.593-7.306
		c-0.086-0.014-0.173-0.028-0.26-0.042C106.852,74.829,106.239,82.81,111.054,82.915z"/>
	<path fill="#41294A" d="M167.653,149.369c3.078,2.688,10.45,1.244,10.411-3.609c-0.019-2.232-1.354-4.174-3.659-4.381
		c-2.286-0.206-3.512,2.468-2.651,4.288c0.356,0.757,1.728,0.853,1.81-0.163c0.036-0.47,0.02-1.232,0.176-1.657
		c0.601-1.622,2.656,1.024,2.484,2.176c-0.249,1.654-2.396,2.427-3.774,2.729c-2.794,0.612-4.873-1.549-4.661-4.246
		c0.329-4.22,5.582-9.177,9.659-6.135c0.349,0.263,0.783-0.265,0.493-0.576C172.067,131.506,161.542,144.034,167.653,149.369z"/>
	<path fill="#41294A" d="M64.236,136.517c7.232-3.676,0.093-18.399-7.14-13.74c-0.359,0.231-0.068,0.847,0.336,0.68
		c4.697-1.954,8.577,4.139,7.865,8.312c-0.455,2.667-3.001,4.254-5.561,2.976c-1.262-0.629-3.156-1.903-2.992-3.568
		c0.115-1.158,2.757-3.223,2.94-1.501c0.05,0.448-0.153,1.185-0.232,1.647c-0.17,1.006,1.182,1.249,1.714,0.603
		c1.278-1.555,0.746-4.446-1.522-4.806c-2.284-0.364-4.056,1.191-4.619,3.351C53.799,135.166,60.593,138.37,64.236,136.517z"/>
	<path fill="#41294A" d="M112.257,73.184c1.094-1.854,1.137-4.15,0.441-6.146c-0.125-0.359-0.729-0.413-0.908-0.076
		c-0.793,1.479-1.531,4.006-0.496,5.563c-0.031,0.077-0.062,0.153-0.091,0.229C110.958,73.37,111.938,73.724,112.257,73.184z
		 M112.095,69.162c0.008,0.452-0.045,0.898-0.143,1.341c-0.003-0.075-0.008-0.151-0.006-0.226
		C111.951,69.904,112.007,69.531,112.095,69.162z"/>
	<path fill="#41294A" d="M121.585,80.643c-0.932-0.417-2.039-0.507-3.039-0.363c-0.356,0.052-1.595,0.399-1.371,1.006
		c0.158,0.432,0.79,0.699,1.209,0.801c0.811,0.194,1.655,0.477,2.486,0.572C122.011,82.785,122.778,81.179,121.585,80.643z"/>
	<path fill="#41294A" d="M100.795,79.598c0.598,0.277,1.204,0.268,1.851,0.283c0.865,0.018,1.699,0.191,2.526-0.132
		c0.234-0.092,0.261-0.393,0.124-0.571c-0.41-0.544-1.005-0.8-1.643-1.004c-0.854-0.27-1.728-0.579-2.626-0.437
		C100.051,77.895,99.925,79.195,100.795,79.598z"/>
	<path fill="#41294A" d="M111.856,85.72c0.043-0.647-0.881-0.753-0.994-0.116c-0.248,1.403-0.943,3.283-0.273,4.62
		c0.068,0.137,0.29,0.178,0.395,0.056C111.955,89.155,111.761,87.141,111.856,85.72z"/>
	<path fill="#41294A" d="M90.323,168.515c3.096,1.675,7.617,1.628,11.015,1.241c3.21-0.361,8.44-2.056,9.032-5.69
		c0.041-0.24-0.211-0.425-0.431-0.393c-1.689,0.263-2.851,1.356-4.347,2.112c-1.675,0.848-3.507,1.254-5.357,1.466
		c-2.854,0.321-5.702-0.614-8.504-0.589c2.465-11.911,4.563-23.919,6.594-35.91c1.042-6.147,1.968-12.257,2.23-18.493
		c0.23-5.447,0.029-11.415-1.758-16.61c-0.188-0.545-0.967-0.518-1.125-0.031c-0.035,0.049-0.059,0.106-0.055,0.178
		c0.039,0.729,0.061,1.454,0.076,2.178c0.025,0.003,0.047,0.016,0.071,0.021c0.323,5.379,0.792,10.673,0.567,16.101
		c-0.251,6.022-1.039,12.063-2.102,17.991c-1.032,5.761-2.283,11.474-3.418,17.212c-1.155,5.836-2.12,11.764-3.698,17.502
		C88.829,167.835,89.573,168.494,90.323,168.515z"/>
	<path fill="#41294A" d="M102.639,163.711c0.336,0.042,0.625,0.034,0.923-0.152c0.273-0.17,0.471-0.446,0.543-0.76
		c0.14-0.599-0.252-1.385-0.913-1.467c-0.335-0.042-0.624-0.032-0.923,0.153c-0.273,0.17-0.47,0.446-0.543,0.761
		C101.585,162.844,101.978,163.629,102.639,163.711z"/>
</g>
</svg>
