<?xml version="1.0" encoding="utf-8"?>
<!-- Generator: Adobe Illustrator 16.0.0, SVG Export Plug-In . SVG Version: 6.00 Build 0)  -->
<!DOCTYPE svg PUBLIC "-//W3C//DTD SVG 1.1//EN" "http://www.w3.org/Graphics/SVG/1.1/DTD/svg11.dtd">
<svg version="1.1" id="Layer_1" xmlns="http://www.w3.org/2000/svg" xmlns:xlink="http://www.w3.org/1999/xlink" x="0px" y="0px"
	 width="250px" height="250px" viewBox="0 0 250 250" enable-background="new 0 0 250 250" xml:space="preserve">
<g>
	<path fill="#41294A" d="M182.772,105.664c0.215,0.168,0.504,0.251,0.756,0.088c0.818-0.537,1.373-1.389,2.063-2.081
		c0.6-0.603,1.279-1.185,1.678-1.947c0.256-0.496-0.328-0.912-0.768-0.775C185.479,101.266,180.995,104.293,182.772,105.664z"/>
	<path fill="#41294A" d="M64.479,100.802c-0.441-0.137-1.023,0.28-0.766,0.776c0.396,0.762,1.074,1.344,1.676,1.948
		c0.691,0.69,1.246,1.544,2.064,2.079c0.254,0.164,0.537,0.082,0.754-0.089C69.985,104.148,65.501,101.123,64.479,100.802z"/>
	<path fill="#41294A" d="M130.821,213.033c-2.012-1.576-5.621-0.557-7.803,0.047c-0.666,0.182-0.381,1.16,0.285,1.025
		c1.09-0.227,2.17-0.326,3.277-0.334c1.303-0.008,2.525,0.498,3.803,0.492C131.06,214.262,131.376,213.465,130.821,213.033z"/>
	<path fill="#41294A" d="M215.661,8.29c-11.035-9.998-29.145-9.655-38.504,0.681c-4.607,5.095-5.166,10.472-1.891,16.386
		c2.117-5.896,4.289-11.306,11.82-10.328c7.871,1.02,12.432,9.127,9.607,16.594c-4.855,12.839-17.172,18.308-29.223,11.104
		c-12.111-7.235-23.158-16.318-34.355-25C107.679-2,68.413,6.83,50.698,31.712c-0.342,0.761-0.674,1.529-0.996,2.302
		c-4.555,6.369-7.615,13.89-9.373,21.409c-2.662,11.389-2.406,23.595,1.268,34.729c0.99,2.994,2.346,5.847,3.918,8.59
		c-0.818,2.259-1.053,4.712-0.699,7.107c0.355,2.425,1.547,5.11,3.471,6.804c-0.004,0.013-0.01,0.029-0.014,0.045
		c-0.236,0.331-0.414,0.735-0.506,1.23c-0.361,2.044-0.652,3.993-0.572,6.072c0.068,1.767,0.104,3.55,0.098,5.318
		c-0.008,2.832,0.258,5.664,0.99,8.4c0.713,2.662,1.695,5.205,3.117,7.57c0.205,0.34,0.416,0.686,0.637,1.041
		c0.352,1.203,0.699,2.406,1.053,3.613c-2.453,0.266-4.746,1.514-6.039,3.717c-1.469,2.504-1.402,5.541-0.889,8.307
		c0.584,3.127,1.918,6.109,3.572,8.813c1.432,2.334,3.277,4.623,5.643,6.061c1.256,0.762,2.666,1.145,4.123,0.863
		c0.729-0.139,1.4-0.508,1.938-1.014c1.184,3.465,2.41,6.912,3.693,10.334c2.586,6.885,5.523,13.615,8.943,20.125
		c1.605,3.051,3.242,6.102,5.01,9.063c0.906,1.521,1.834,3.027,2.74,4.551c0.699,1.17,1.336,2.379,2.014,3.566
		c-1.072,4.088-2.271,8.145-3.746,12.084c-2.035,5.434-6.691,9.115-12.943,9.176c-1.492,0.016-3.568-1.67-4.311-3.119
		c-0.484-0.938,0.949-2.869,1.527-4.355c0.508,0.123,1.018,0.246,1.527,0.371c0.25,1.602,0.502,3.211,0.748,4.813
		c0.723,0.027,1.443,0.053,2.168,0.084c0-2.229,0.736-5.971-0.146-6.404c-2.301-1.133-6.254-2.008-7.814-0.783
		c-2.045,1.609-3.49,5.412-3.277,8.127c0.361,4.635,4.189,7.984,8.602,7.633c5.777-0.449,12.025-1.533,16.984-4.295
		c5.979-3.324,9.926-8.201,12.783-13.813c1.34,0.578,2.711,1.092,4.096,1.566c5.99,2.061,12.197,3.385,18.453,4.311
		c5.275,0.783,10.584,1.318,15.891,1.811c6.088,0.57,12.523,1.625,18.4-0.566l0.32,0.031c-0.174-0.133-0.287-0.332-0.271-0.539
		c0.174-0.004,0.355-0.061,0.543-0.188c0.639-0.439,1.264-0.889,1.873-1.355c0.371,0.004,0.76-0.174,0.984-0.457
		c0.131-0.164,0.213-0.354,0.246-0.557c0.404-0.352,0.801-0.717,1.18-1.098c0.111-0.113,0.232-0.232,0.352-0.355
		c3.91,7.701,10.828,12.875,19.672,15.195c5.006,1.314,10.432,1.664,14.037-2.447c2.031-2.314,3.092-6.545,2.607-9.6
		c-0.303-1.912-4.129-4.012-6.684-4.541c-1.469-0.307-4.127,2.031-5.131,3.809c-0.572,1.014,1.121,3.301,2.047,5.652
		c1.338-2.916,2.082-4.535,2.822-6.158c0.846,0.984,2.559,2.66,2.412,2.84c-1.336,1.662-2.971,4.242-4.564,4.27
		c-2.557,0.053-6.15-0.895-7.516-2.746c-3.574-4.83-7.4-10.049-8.918-15.709c-0.414-1.541-0.791-3.084-1.145-4.637
		c0.023-0.047,0.047-0.092,0.078-0.139c-0.031,0.043-0.055,0.086-0.082,0.129c-0.131-0.592-0.266-1.182-0.395-1.773
		c0.438-0.691,0.873-1.377,1.297-2.07c5.775-9.447,10.705-19.336,14.984-29.508c0.404-1.088,0.855-2.166,1.328-3.225
		c0.477-1.18,0.949-2.365,1.414-3.555c0.16-0.473,0.322-0.947,0.479-1.42c0.629-1.885,1.244-3.777,1.857-5.676
		c0.904,0.771,2.631,0.742,3.818,0.578c0.383,0.139,0.854,0.082,1.148-0.238c0.967-0.275,1.883-0.727,2.689-1.324
		c4.871-3.6,6.627-10.629,7.078-16.355c0.277-3.496,0.291-7.605-1.523-10.738c-0.666-1.15-1.727-2.133-3.119-2.174
		c-0.436-0.014-0.846,0.053-1.234,0.178c1.305-2.262,2.23-4.678,2.906-7.199c0.734-2.742,0.998-5.572,0.99-8.405
		c-0.004-1.766,0.029-3.548,0.098-5.312c0.084-2.085-0.209-4.033-0.574-6.076c-0.086-0.494-0.266-0.902-0.504-1.229
		c-0.098-0.484-0.359-0.93-0.84-1.24c-0.504-0.324-1.037-0.58-1.6-0.794c3.529-3.387,4.725-8.442,4.807-13.197
		c0.049-2.667-0.379-5.308-1.053-7.881c-0.174-0.655-0.381-1.324-0.623-1.989c0.5-0.308,0.994-0.619,1.479-0.943
		c0.666-0.562,1.32-1.137,1.967-1.72c2.713-2.115,5.105-4.624,7.389-7.207c2.42-2.736,4.648-5.655,6.602-8.746
		c0.518-0.711,0.938-1.563,1.404-2.311C232.911,46.002,231.19,22.355,215.661,8.29z M194.849,164.781
		c-0.422,0.902-0.898,1.781-1.373,2.664c-0.336-0.527-0.666-1.055-0.91-1.621c-0.516-1.207-0.781-2.488-1.078-3.76
		c0.127-0.398,0.252-0.797,0.377-1.193c0.92-2.928,1.758-5.875,2.59-8.828c0.482-1.715,0.988-3.447,1.406-5.191
		c1.166,0.822,1.947,1.996,2.195,3.514c0.406,2.502-0.012,5.033-0.631,7.461C196.812,160.229,195.89,162.537,194.849,164.781z
		 M193.722,139.197c-0.809,1.457-1.732,2.854-2.727,4.191c-3.902,5.256-9.547,9.727-15.674,12.154
		c-3.033,1.201-6.234,1.979-9.475,2.34c-1.592,0.176-3.191,0.195-4.789,0.117c-1.391-0.068-3.385-0.131-4.816-0.768
		c-1.764-0.441-3.469-1.227-5.025-2.342c-4.637-3.322-8.117-7.986-10.836-12.965c-0.51-0.932-1-1.875-1.453-2.834
		c-0.234-0.492-3.678-6.787-4.027-12.639c-0.035-0.23-0.063-0.463-0.086-0.691c-0.209-1.962,0.051-3.847,0.795-5.673
		c0.801-1.967,2.424-3.103,4.291-3.918c0.611-0.268,1.254-0.337,1.891-0.26c0.852-0.206,1.736-0.388,2.719-0.592
		c4.793-0.988,9.691-1.387,14.568-1.669c5.125-0.298,10.279-0.243,15.41-0.196c1.945,0.017,3.887,0.062,5.83,0.14
		c0.732,0.028,1.463,0.067,2.193,0.109c0.307,0.019,0.615,0.037,0.926,0.062c0.135,0.011,0.271,0.019,0.41,0.031
		c0.041,0,0.072,0.006,0.098,0.008c1.078,0.103,2.152,0.192,3.229,0.3c0.102,0.11,0.248,0.194,0.443,0.209
		c2.6,0.238,4.875,0.848,6.301,3.18c1.449,2.378,1.793,5.507,1.898,8.233C195.997,130.344,195.278,134.891,193.722,139.197z
		 M129.546,137.672c0.65,1.781,1.35,3.539,2.148,5.242c0.453,0.967,0.869,1.953,1.275,2.945c-1.021-1.947-1.912-3.961-2.715-6.008
		c-0.283-0.713-0.545-1.438-0.799-2.164C129.489,137.684,129.517,137.678,129.546,137.672z M132.911,116.303
		c-0.023,0.008-0.051,0.015-0.072,0.024c-0.133,0.049-0.271,0.088-0.412,0.123c-2.119-1.181-5.348-0.864-7.666-0.834
		c-0.762,0.009-1.543,0.039-2.322,0.108c-1.928-0.057-4.131-0.073-5.797,0.664c-0.283-0.043-0.563-0.108-0.824-0.208
		c-0.025-0.009-0.051-0.017-0.076-0.023c-1.166-2.191-4.162-3.46-6.461-4.185c-9.598-3.025-20.133-3.317-30.121-3.65
		c-3.99-0.133-8.012-0.049-11.996,0.149c-1.316,0.065-2.635,0.143-3.941,0.3c-2.34,0.278-4.785,0.385-7.156,0.767
		c-0.094,0.018-0.193,0.032-0.291,0.047c0.332-0.515,0.416-1.195-0.02-1.828c-0.357-0.521-0.664-1.068-0.928-1.63l-0.303-7.991
		c0.139-0.14,0.24-0.325,0.271-0.553c0.309-2.179,0.828-4.296,1.551-6.341c0.805-1.194,1.775-2.279,2.914-3.153
		c2.068-1.594,4.223-2.047,6.738-2.422c0.523-0.077,0.811-0.431,0.883-0.839c5.691-0.521,11.604,0.422,17.1,1.484
		c13.311,2.571,26.332,7.303,38.705,12.786c11.641,5.157,24.771,7.558,37.461,6.211c12.363-1.311,23.973-6.162,34.207-13.082
		l-0.658,17.627c-0.377-0.058-0.748-0.112-1.109-0.17c-2.371-0.384-4.818-0.488-7.154-0.768c-1.309-0.159-2.627-0.235-3.943-0.299
		c-3.986-0.199-8.006-0.283-11.992-0.15c-9.992,0.331-20.527,0.621-30.127,3.651C137.075,112.843,134.081,114.11,132.911,116.303z
		 M62.706,80.678c-0.441,0.111-0.58-0.566-0.148-0.686c0.467-0.13,0.932-0.247,1.396-0.363c0.17-0.042,0.338-0.083,0.502-0.122
		c0.303-0.07,0.605-0.14,0.908-0.205c0.193-0.044,0.389-0.088,0.586-0.129c0.408-0.084,0.814-0.167,1.225-0.244
		c0.01-0.001,0.021-0.003,0.033-0.005l0,0c4.803-0.895,9.717-1.179,14.604-0.997c1.143,0.042,2.275,0.109,3.414,0.201l0,0
		c0.527,0.041,1.051,0.089,1.576,0.141c0.047,0.008,0.094,0.01,0.137,0.015c0.564,0.059,1.127,0.12,1.688,0.188
		c0.549,0.068,1.094,0.142,1.643,0.219l0,0c6.492,0.925,12.832,2.611,18.988,4.896c6.01,2.229,11.82,4.937,17.783,7.281
		c5.75,2.262,11.68,4.46,17.818,5.329c3.156,0.448,6.475,0.806,9.664,0.498c3.426-0.329,6.773-0.977,10.18-1.432
		c1.633-0.216,2.711,1.389,2.24,2.646c-0.014,0.03-0.023,0.066-0.039,0.099c-0.006,0.007-0.012,0.015-0.016,0.024
		c-0.018,0.041-0.041,0.083-0.063,0.124c0,0.004-0.006,0.009-0.006,0.015c-0.055,0.093-0.119,0.185-0.197,0.271
		c-0.002,0.002-0.002,0.003-0.002,0.003c-0.041,0.045-0.08,0.088-0.123,0.13c-0.004,0.001-0.006,0.006-0.01,0.009
		c-0.043,0.039-0.086,0.078-0.135,0.114c-0.1,0.082-0.213,0.156-0.344,0.224c-0.16,0.088-0.324,0.169-0.49,0.245
		c-0.041,0.021-0.08,0.039-0.121,0.057c-0.162,0.072-0.324,0.144-0.486,0.209c-0.002,0.002-0.01,0.002-0.012,0.004
		c-0.178,0.071-0.355,0.137-0.539,0.2c-0.02,0.008-0.049,0.019-0.072,0.024c-0.178,0.06-0.354,0.118-0.535,0.172
		c0.004,0,0.004,0,0.004,0c-1.348,0.398-2.75,0.606-4.146,0.792c-2.252,0.297-4.527,0.58-6.799,0.631
		c-4.102,0.088-8.164-0.351-12.164-1.25c-12.516-2.804-23.549-9.814-35.412-14.438c-6.771-2.637-13.738-5.021-20.973-5.979
		c-6.898-0.911-13.75-0.717-20.523,0.843l0,0C63.396,80.511,63.052,80.592,62.706,80.678z M64.923,83
		c-1.807,0.285-3.572,0.73-5.248,1.391c0.053-0.083,0.102-0.167,0.156-0.248c0.104-0.161,0.207-0.317,0.314-0.472
		c0.32-0.194,0.648-0.381,0.994-0.547c1.924-0.92,4.051-1.364,6.158-1.576c4.715-0.477,9.518,0.101,14.148,1.01
		c4.512,0.882,8.887,2.171,13.193,3.66c-2.389-0.64-4.795-1.226-7.215-1.748C80.132,82.898,72.358,81.831,64.923,83z M65.931,80.343
		c0.205-0.073,0.408-0.145,0.619-0.211c0.305-0.095,0.609-0.181,0.918-0.264c0.412,0.059,0.826,0.108,1.24,0.155
		C67.806,80.083,66.872,80.185,65.931,80.343z M177.649,96.235L177.649,96.235c-0.266,0.091-0.535,0.177-0.805,0.254
		c-0.027,0.009-0.055,0.017-0.084,0.023c-0.074,0.021-0.146,0.04-0.221,0.06c-0.033,0.009-0.07,0.02-0.105,0.028
		c-0.07,0.02-0.145,0.037-0.215,0.053c-0.033,0.009-0.064,0.015-0.098,0.022c-0.137,0.032-0.275,0.061-0.414,0.085
		c-0.033,0.008-0.07,0.014-0.105,0.021c-0.064,0.01-0.133,0.021-0.197,0.03c-0.045,0.008-0.09,0.015-0.139,0.021
		c-0.061,0.008-0.127,0.018-0.195,0.024c-0.045,0.005-0.09,0.008-0.135,0.013c-0.066,0.006-0.135,0.015-0.195,0.018
		c-0.045,0.003-0.09,0.003-0.129,0.006c-0.121,0.006-0.24,0.009-0.361,0.009c-0.049-0.001-0.096,0-0.145-0.001
		c-0.063-0.001-0.123-0.006-0.188-0.008c-0.049-0.003-0.1-0.006-0.148-0.009c-0.063-0.006-0.123-0.012-0.188-0.02
		c-0.049-0.004-0.1-0.011-0.148-0.018c-0.064-0.007-0.125-0.017-0.186-0.025c-0.236-0.041-0.471-0.097-0.707-0.168
		c-0.967-0.303-0.699-1.495,0.098-1.776c1.758-0.625,3.506-1.049,5.127-2.026c1.605-0.966,2.986-2.194,4.549-3.211
		c1.674-1.09,3.061,1.412,1.873,2.693c-1.463,1.58-3.723,2.862-5.725,3.611C178.194,96.044,177.923,96.142,177.649,96.235z
		 M57.409,160.314c-0.371,0.877-0.764,1.75-1.15,2.619c-0.309,0.695-0.691,1.416-0.906,2.164c-1.02-1.135-1.783-2.703-2.252-4.105
		c-0.652-1.959-0.941-4.137-0.51-6.168c0.172-0.82,0.523-1.574,1.063-2.217c0.338-0.4,0.74-0.621,1.182-0.744
		C55.677,154.686,56.53,157.5,57.409,160.314z M58.577,164.016c0.271,0.848,0.545,1.697,0.822,2.545
		c-0.674,0.191-1.305,0.178-1.893,0.004C57.997,165.805,58.272,164.875,58.577,164.016z M54.931,139.053
		c-1.557-4.309-2.273-8.855-2.094-13.475c0.105-2.726,0.451-5.854,1.9-8.231c1.424-2.333,3.699-2.943,6.299-3.181
		c0.195-0.019,0.342-0.1,0.445-0.21c1.076-0.104,2.15-0.196,3.227-0.299c0.027,0,0.059-0.006,0.1-0.008
		c0.137-0.012,0.273-0.021,0.414-0.032c0.305-0.022,0.613-0.041,0.922-0.062c0.73-0.041,1.463-0.08,2.195-0.108
		c1.939-0.079,3.883-0.12,5.826-0.139c5.131-0.049,10.285-0.103,15.408,0.194c4.877,0.283,9.779,0.682,14.57,1.67
		c0.984,0.203,1.871,0.385,2.721,0.591c0.635-0.075,1.277-0.006,1.887,0.261c1.875,0.815,3.49,1.951,4.295,3.92
		c0.742,1.824,1.004,3.709,0.795,5.672c-0.025,0.225-0.053,0.457-0.088,0.693c-0.35,5.848-3.793,12.143-4.027,12.635
		c-0.453,0.959-0.945,1.902-1.453,2.832c-2.717,4.982-6.199,9.646-10.836,12.971c-1.557,1.113-3.262,1.896-5.023,2.338
		c-1.432,0.637-3.424,0.699-4.82,0.77c-1.594,0.076-3.195,0.061-4.781-0.119c-3.246-0.359-6.445-1.137-9.48-2.34
		c-6.127-2.43-11.771-6.896-15.674-12.156C56.663,141.904,55.739,140.51,54.931,139.053z M178.116,15.183
		c-0.193,0.459-0.938,0.219-0.742-0.248c1.801-4.288,6.049-7.854,10.342-9.471c10.441-3.938,21.455,2.555,27.496,11.015
		c3.336,4.674,4.932,9.876,5.945,15.487c1.088,6.044,1.398,12.29,0.201,18.344c-1.229,6.224-4.041,11.851-8.129,16.688
		c-3.846,4.553-8.127,8.749-12.967,12.241c-0.822,0.592-1.654,1.161-2.5,1.714l0,0c-0.486,0.315-0.975,0.621-1.469,0.922
		c-0.027,0.017-0.053,0.032-0.076,0.05c-0.5,0.3-0.998,0.594-1.5,0.882c-7.656,4.367-16.184,7.02-25.082,7.375
		c-5.783,0.229-11.586-0.43-17.197-1.854c-5.852-1.487-11.479-3.786-17.084-6.015c-11.783-4.688-23.619-9.703-36.121-12.152
		c-6.162-1.204-12.541-1.802-18.803-1.1c-3.861,0.431-7.84,1.238-11.443,2.821l0,0c-0.01,0.006-0.021,0.01-0.031,0.016
		c-0.41,0.18-0.814,0.374-1.219,0.575v0.001l0,0c-1.074,0.541-2.105,1.155-3.082,1.863c-0.553,0.401-1.096,0.82-1.627,1.256l0,0
		c-0.004,0.001-0.004,0.003-0.006,0.004c-0.336,0.275-0.666,0.56-0.996,0.848c-0.061,0.054-0.123,0.108-0.186,0.162
		c-0.672,0.601-1.324,1.224-1.953,1.871c-0.037,0.039-0.074,0.077-0.111,0.117c-0.313,0.324-0.619,0.652-0.918,0.99
		c-0.002,0.001-0.006,0.003-0.006,0.003l-0.002,0.002c-0.857,0.966-1.664,1.975-2.41,3.025l0,0c0,0,0,0.001-0.002,0.001
		c-0.107,0.152-0.217,0.306-0.326,0.461c-0.1,0.149-0.197,0.297-0.299,0.446c-0.045,0.064-0.09,0.129-0.131,0.194
		c0,0-0.002,0.002-0.002,0.004l0,0c-0.543,0.826-1.045,1.675-1.512,2.542c-0.027,0.054-0.055,0.11-0.082,0.163v-0.002
		c-0.02,0.036-0.035,0.071-0.055,0.104c-0.006,0.01-0.01,0.02-0.012,0.028c0-0.002,0-0.002,0-0.002
		c-0.027,0.05-0.053,0.098-0.078,0.148c-0.064,0.128-0.131,0.254-0.193,0.383c-0.047,0.089-0.09,0.178-0.131,0.269
		c-0.063,0.128-0.127,0.256-0.189,0.386c-0.018,0.04-0.035,0.076-0.053,0.116c-0.029,0.06-0.057,0.122-0.082,0.183
		c-0.057,0.12-0.115,0.242-0.172,0.365c-0.018,0.048-0.039,0.101-0.061,0.149c-0.035,0.082-0.068,0.163-0.104,0.244
		c-0.07,0.161-0.137,0.32-0.197,0.48c-0.041,0.093-0.074,0.183-0.109,0.273c-0.021,0.054-0.045,0.108-0.066,0.164
		c-0.037,0.1-0.074,0.203-0.111,0.306c-0.031,0.086-0.064,0.171-0.096,0.257c-0.016,0.042-0.027,0.085-0.045,0.126
		c-0.039,0.12-0.08,0.238-0.117,0.358c-0.004,0.009-0.006,0.014-0.008,0.022c-0.029,0.091-0.064,0.185-0.092,0.274
		c-0.006,0.013-0.008,0.026-0.012,0.043c-0.037,0.115-0.074,0.235-0.107,0.354c-0.025,0.083-0.051,0.165-0.074,0.247
		c-0.014,0.055-0.031,0.112-0.049,0.168c-0.023,0.096-0.047,0.191-0.072,0.284c-0.023,0.094-0.051,0.185-0.07,0.276
		c-0.01,0.047-0.027,0.091-0.035,0.137v0.01c-0.025,0.095-0.047,0.188-0.066,0.286c-0.025,0.12-0.053,0.246-0.078,0.366
		c-0.021,0.113-0.043,0.229-0.068,0.344c-0.023,0.128-0.041,0.258-0.063,0.386c-0.02,0.11-0.037,0.22-0.053,0.33
		c-0.021,0.143-0.037,0.29-0.051,0.435c-0.014,0.094-0.025,0.187-0.035,0.281c-0.025,0.234-0.043,0.47-0.057,0.704
		c-0.004,0.078-0.004,0.154-0.008,0.233c-0.008,0.164-0.016,0.328-0.016,0.492c0,0.096,0,0.193,0.002,0.29
		c0,0.112-0.002,0.227,0,0.339c-0.119,0.627-0.211,1.26-0.27,1.894c-0.041-0.16-0.076-0.325-0.107-0.488
		c-0.006-0.047-0.016-0.093-0.023-0.137c-0.047-0.26-0.084-0.521-0.117-0.781c-0.012-0.086-0.021-0.172-0.029-0.255
		c-0.014-0.124-0.025-0.249-0.035-0.374c-0.012-0.146-0.02-0.294-0.025-0.44c-0.008-0.104-0.012-0.205-0.014-0.308
		c-0.004-0.203-0.004-0.405-0.002-0.608c0.002-0.068,0.004-0.14,0.004-0.212c0.008-0.24,0.021-0.481,0.041-0.725
		c0.023-0.282,0.053-0.562,0.09-0.844c0.01-0.072,0.02-0.147,0.029-0.22c0.035-0.257,0.074-0.513,0.115-0.766
		c0.01-0.024,0.01-0.05,0.016-0.076c0.049-0.269,0.102-0.534,0.16-0.801c0.016-0.083,0.035-0.168,0.055-0.254
		c0.053-0.214,0.102-0.428,0.156-0.639c0.018-0.062,0.031-0.123,0.047-0.182c0.066-0.247,0.137-0.492,0.215-0.736
		c0.029-0.104,0.061-0.207,0.096-0.308c0.066-0.219,0.139-0.433,0.215-0.645c0.006-0.01,0.008-0.021,0.01-0.035
		c0.066-0.182,0.133-0.363,0.201-0.544c0.021-0.059,0.045-0.118,0.064-0.178c0.078-0.185,0.148-0.368,0.225-0.549
		c0.027-0.065,0.055-0.131,0.08-0.195c0.076-0.183,0.156-0.365,0.238-0.55c0.02-0.034,0.035-0.069,0.051-0.105
		c0.08-0.183,0.166-0.36,0.252-0.538c0.021-0.045,0.045-0.089,0.063-0.132c0.086-0.175,0.172-0.348,0.262-0.521
		c0.023-0.04,0.037-0.079,0.061-0.118c0.1-0.189,0.197-0.378,0.301-0.563c0.01-0.02,0.02-0.04,0.031-0.058
		c0.115-0.212,0.232-0.421,0.355-0.631l0,0c0.088-0.151,0.176-0.302,0.266-0.454c0.049-0.081,0.1-0.163,0.148-0.244
		c0.102-0.16,0.201-0.322,0.303-0.483c0.064-0.099,0.125-0.194,0.189-0.291c0.1-0.154,0.201-0.306,0.303-0.457
		c0.057-0.087,0.115-0.17,0.174-0.254c0.146-0.218,0.303-0.433,0.455-0.646c0.012-0.017,0.023-0.032,0.033-0.047l0,0
		c0.182-0.255,0.373-0.509,0.563-0.758c0.166-0.22,0.34-0.439,0.512-0.658c0.252-0.314,0.508-0.629,0.768-0.938
		c0.002-0.003,0.004-0.008,0.006-0.01c0.262-0.31,0.525-0.617,0.799-0.922l0,0c2.551-2.869,5.551-5.43,8.977-7.103
		c10.762-5.257,23.824-4.341,35.145-1.725c12.377,2.86,24.07,7.896,35.861,12.503c5.631,2.201,11.295,4.394,17.242,5.584
		c5.717,1.145,11.639,1.52,17.441,0.848c7.65-0.886,14.92-3.45,21.482-7.311l0,0c0.004-0.003,0.006-0.004,0.012-0.008
		c0.266-0.154,0.529-0.314,0.793-0.475c0.014-0.007,0.027-0.018,0.043-0.024c0.258-0.159,0.516-0.319,0.77-0.481
		c0.021-0.013,0.041-0.026,0.063-0.04c0.252-0.161,0.508-0.321,0.754-0.485c0.023-0.016,0.041-0.027,0.064-0.043
		c2.248-1.479,4.404-3.113,6.455-4.89c4.686-4.065,9.342-8.77,12.412-14.206c3.117-5.521,4.631-11.794,4.713-18.118
		c0.035-3.248-0.234-6.492-0.775-9.698c-0.51-3.009-1.09-6.14-2.189-9c-2.01-5.22-5.5-9.98-9.908-13.43
		c-4.398-3.443-10.039-5.823-15.723-5.063C186.438,5.888,180.413,9.712,178.116,15.183z M189.31,9.374
		c-0.313,0.002-0.361-0.527-0.041-0.557c5.504-0.502,10.939,1.448,14.74,5.498c3.711,3.95,5.928,9.364,6.857,14.653
		c1.6,9.099-0.193,18.329-4.91,26.265c-0.873,1.46-1.822,2.868-2.846,4.229c-1.014,1.335-2.092,2.617-3.234,3.844h0.002
		c-0.939,1.004-1.918,1.97-2.932,2.895l0,0c-0.246,0.217-0.484,0.433-0.727,0.646c-0.006,0.004-0.01,0.01-0.016,0.012
		c-0.236,0.209-0.479,0.414-0.719,0.618c-0.021,0.015-0.043,0.032-0.061,0.048c-0.23,0.194-0.463,0.386-0.697,0.576
		c-0.025,0.021-0.051,0.042-0.08,0.063c-0.23,0.187-0.465,0.372-0.697,0.553l0,0c-4.17,3.234-8.846,5.817-13.779,7.586
		c-5.449,1.951-11.248,3.098-17.053,2.649c-6.818-0.528-13.439-2.58-19.795-5.019c-12.291-4.72-24.1-11.089-36.965-14.18
		c-12.512-3.007-26.434-3.038-38.113,2.958c-3.254,1.67-6.402,3.736-9.066,6.277c-0.021,0.021-0.041,0.038-0.064,0.061
		c-0.148,0.144-0.295,0.287-0.441,0.436c-0.021,0.019-0.045,0.043-0.064,0.064c-0.16,0.16-0.316,0.321-0.473,0.483
		c-0.004,0.005-0.006,0.009-0.01,0.012c-0.328,0.35-0.65,0.709-0.963,1.074c-0.002,0.003-0.004,0.006-0.008,0.011
		c-0.146,0.171-0.287,0.348-0.43,0.521c-0.02,0.025-0.037,0.048-0.055,0.071c-0.131,0.161-0.258,0.323-0.383,0.489
		c-0.021,0.025-0.033,0.047-0.053,0.07c-0.137,0.184-0.275,0.368-0.406,0.558l0,0l0,0c-0.602,0.847-1.148,1.735-1.639,2.664
		c-0.156,0.3-0.301,0.603-0.445,0.904c-0.061,0.127-0.117,0.252-0.178,0.377c-0.07,0.158-0.141,0.314-0.209,0.474
		c-0.424,0.969-0.803,1.953-1.133,2.955c-0.037,0.111-0.076,0.225-0.111,0.338c-1.361,4.244-1.986,8.725-2.559,13.138
		c-0.045,0.327-0.551,0.303-0.518-0.03c0.4-3.962,0.896-8.052,1.943-11.951l0,0c0.104-0.373,0.209-0.745,0.32-1.112
		c0.1-0.344,0.211-0.685,0.324-1.023c0.053-0.163,0.107-0.324,0.162-0.485c0.008-0.021,0.014-0.04,0.021-0.061
		c0.064-0.189,0.137-0.38,0.207-0.571c0.01-0.027,0.021-0.056,0.033-0.085c0.066-0.181,0.137-0.36,0.209-0.542
		c0.008-0.018,0.014-0.037,0.02-0.055c0.055-0.138,0.113-0.273,0.17-0.411c0.027-0.063,0.049-0.124,0.076-0.187
		c0.059-0.137,0.115-0.273,0.178-0.406c0.027-0.063,0.057-0.125,0.082-0.187c0.066-0.141,0.127-0.28,0.197-0.42
		c0.02-0.052,0.045-0.102,0.07-0.152c0.066-0.145,0.135-0.288,0.207-0.43c0.023-0.048,0.045-0.094,0.07-0.14
		c0.072-0.148,0.148-0.294,0.229-0.438c0.02-0.04,0.041-0.08,0.061-0.118c0.082-0.152,0.164-0.305,0.248-0.453
		c0.016-0.03,0.035-0.063,0.053-0.093c0.09-0.156,0.182-0.314,0.271-0.47c0.008-0.019,0.021-0.036,0.031-0.056
		c0.104-0.167,0.201-0.331,0.307-0.498l0,0c0.094-0.148,0.188-0.298,0.283-0.443c0.055-0.084,0.115-0.168,0.172-0.252l0,0
		c0.369-0.548,0.764-1.084,1.174-1.604v-0.001c0.141-0.172,0.277-0.343,0.418-0.511c0.004-0.005,0.006-0.009,0.008-0.011
		c0.141-0.167,0.281-0.332,0.422-0.496c0.004-0.006,0.01-0.01,0.016-0.014c0.141-0.163,0.285-0.324,0.432-0.485
		c0.004-0.005,0.006-0.009,0.012-0.012c0.297-0.326,0.604-0.643,0.916-0.959l0,0c3.844-3.85,8.775-6.767,13.742-8.667
		c11.906-4.552,25.15-4.042,37.289-0.684c12.822,3.55,24.6,9.959,37.123,14.345c6.479,2.268,13.314,4.229,20.254,4.005
		c5.768-0.186,11.605-1.807,16.818-4.243c3.594-1.68,7.039-3.794,10.186-6.287l0,0c0.045-0.036,0.088-0.072,0.137-0.109
		c0.402-0.318,0.799-0.645,1.191-0.978c0.027-0.026,0.057-0.05,0.086-0.073c0.215-0.185,0.43-0.37,0.641-0.56
		c0.016-0.012,0.033-0.025,0.043-0.038c0.008-0.006,0.016-0.012,0.023-0.019c0.047-0.042,0.096-0.082,0.145-0.125
		c0.162-0.148,0.324-0.299,0.49-0.448c0-0.001,0-0.001,0-0.001l0,0c0.01-0.007,0.018-0.016,0.027-0.023
		c0.078-0.068,0.152-0.14,0.227-0.211c0.16-0.146,0.32-0.297,0.479-0.447c0.084-0.081,0.17-0.164,0.256-0.247
		c0.148-0.146,0.299-0.295,0.449-0.443c0.09-0.089,0.178-0.179,0.266-0.267c0.143-0.146,0.291-0.295,0.434-0.443
		c0.088-0.093,0.178-0.188,0.266-0.28c0.141-0.148,0.283-0.298,0.42-0.448c0.074-0.082,0.148-0.166,0.225-0.246
		c0.246-0.273,0.488-0.547,0.73-0.822c0.113-0.131,0.223-0.263,0.338-0.394c0.102-0.126,0.205-0.251,0.313-0.377
		c0.109-0.136,0.225-0.273,0.334-0.411c0.104-0.123,0.201-0.249,0.301-0.374c0.113-0.145,0.225-0.287,0.334-0.431
		c0.098-0.123,0.189-0.245,0.285-0.371c0.113-0.151,0.227-0.307,0.34-0.458c0.088-0.117,0.174-0.237,0.258-0.354
		c0.119-0.171,0.24-0.34,0.359-0.511c0.074-0.107,0.148-0.212,0.223-0.321c0.158-0.231,0.313-0.463,0.465-0.699
		c0.031-0.048,0.064-0.093,0.092-0.141c0.002-0.001,0.002-0.002,0.002-0.002l0,0c1.373-2.114,2.549-4.349,3.502-6.694
		c3.244-8.016,3.928-17.521,1.045-25.772c-1.371-3.929-3.6-7.729-6.918-10.32C198.03,10.357,193.772,9.349,189.31,9.374z
		 M125.231,51.44c1.887,1.745,3.965,3.239,5.932,4.884c0.174,0.142,0.012,0.403-0.189,0.294c-2.287-1.224-4.234-3.071-6-4.942
		C124.815,51.508,125.065,51.288,125.231,51.44z M187.808,53.548c2.732-1.256,5.139-2.96,7.217-4.985
		c0.371-0.478,0.744-0.954,1.125-1.425c1.168-1.436,2.289-2.914,3.428-4.374c0.66-1.103,1.248-2.251,1.771-3.433
		c-0.002,0.003-0.002,0.007-0.002,0.01c0.014-0.028,0.027-0.057,0.037-0.082c0.057-0.129,0.113-0.261,0.168-0.391
		c0.107-0.252,0.217-0.512,0.316-0.769c0.059-0.15,0.119-0.297,0.174-0.447c0.107-0.284,0.213-0.571,0.313-0.86
		c0.053-0.148,0.104-0.298,0.15-0.447c0.111-0.319,0.213-0.64,0.309-0.961c0.045-0.149,0.086-0.303,0.131-0.451
		c0.068-0.234,0.131-0.465,0.195-0.699c0.041-0.159,0.082-0.313,0.123-0.475c0.066-0.265,0.127-0.53,0.189-0.799
		c-0.002-0.003-0.002-0.008-0.002-0.01c0.029-0.129,0.061-0.252,0.088-0.38c0.313-1.456,0.547-2.985,0.641-4.526
		c-0.037-0.323-0.078-0.649-0.125-0.976c-0.021-0.167,0.053-0.294,0.164-0.365c0-1.988-0.271-3.963-0.973-5.79
		c-1.475-3.845-4.547-6.102-8.424-7.256c-0.396-0.119-0.279-0.797,0.143-0.726c1.416,0.233,2.768,0.606,4.025,1.315
		c5.896,3.314,6.957,10.218,6.113,16.448c0.127,7.682-3.211,14.622-8.314,20.123c-0.393,0.667-0.814,1.308-1.293,1.898
		c-0.471,0.587-0.963,1.161-1.488,1.701c-0.162,0.166-0.328,0.329-0.496,0.487c-0.029,0.026-0.057,0.049-0.08,0.076
		c-0.172,0.153-0.342,0.308-0.521,0.453c-0.105,0.09-0.217,0.183-0.332,0.277c-0.291,0.388-0.629,0.75-0.992,1.093
		c-0.082,0.083-0.172,0.161-0.26,0.239c-0.07,0.064-0.135,0.127-0.207,0.186c-0.15,0.133-0.307,0.26-0.459,0.386
		c-0.063,0.047-0.121,0.093-0.184,0.139c-0.119,0.093-0.238,0.186-0.357,0.274c-0.053,0.039-0.105,0.081-0.156,0.119
		c-0.16,0.12-0.32,0.237-0.479,0.346c-0.209,0.151-0.422,0.298-0.635,0.443c-0.203,0.138-0.412,0.273-0.623,0.407
		c-1.48,0.951-3.035,1.778-4.648,2.493c-4.539,2.013-9.375,3.403-14.283,4.181c-5.197,0.821-10.408,0.624-15.6-0.242
		c-6.287-1.045-12.354-3.016-17.793-6.377c-0.16-0.099-0.004-0.338,0.158-0.243c9.73,5.712,21.869,7.458,32.938,5.469
		c3.602-0.646,7.201-1.571,10.652-2.845c-6.234,2.085-12.936,2.681-19.492,1.505c-20.799-3.734-36.16-20.422-56.229-26.124
		c-11.234-3.19-25.254-2.572-34.254,5.755c-2.559,2.366-4.912,5.004-7.068,7.76c2.191-1.664,4.555-3.104,7.039-4.314
		c8.406-4.093,17.74-6.155,27.104-5.73c8.705,0.396,18.445,2.611,25.006,8.673c0.199,0.185-0.078,0.433-0.283,0.331
		c-3.787-1.875-7.697-3.623-11.777-4.78c-4.162-1.183-8.479-1.796-12.807-1.86c-9.123-0.137-18.604,1.881-26.49,6.592
		c-3.768,2.251-7.289,5.084-10.184,8.395c-1.412,1.612-2.662,3.383-3.725,5.242c-0.852,1.487-1.564,3.119-2.504,4.571
		c-0.145,0.224-0.293,0.442-0.451,0.656c-0.002,0.002-0.006,0.007-0.008,0.01c-0.152,0.212-0.316,0.42-0.488,0.619
		c-0.879,1.032-2.299-0.053-2.322-1.108c-0.004-0.139,0-0.278,0.006-0.417c0.002-0.049,0.006-0.101,0.008-0.149
		c0.008-0.087,0.016-0.176,0.023-0.262c0.004-0.063,0.01-0.125,0.021-0.187c0.008-0.077,0.021-0.155,0.033-0.232
		c0.01-0.063,0.018-0.128,0.031-0.189l0,0c0.363-2.013,1.484-4.028,2.504-5.677c1.297-2.102,2.811-4.072,4.498-5.881
		c0.848-0.911,1.742-1.774,2.676-2.594c0.061-0.084,0.119-0.168,0.18-0.252c2.479-3.372,5.215-6.639,8.24-9.536
		c8.393-8.036,21.414-9.614,32.367-7.216c10.203,2.234,19.348,7.576,28.254,12.822c8.908,5.25,18.014,10.885,28.193,13.266
		c10.729,2.512,21.869,0.485,31.053-5.63c0.75-0.498,1.48-1.024,2.195-1.575c0.127-0.453,0.375-0.906,0.666-1.344
		c-0.941,0.604-1.934,1.148-2.971,1.627c-10.047,4.616-20.859,0.747-29.801-4.551c-4.895-2.898-9.449-6.284-14.021-9.663
		c-4.072-3.011-8.383-5.715-12.883-8.043c-17.547-9.08-40.23-13.976-58.436-3.881c-9.682,5.368-16.602,14.217-20.705,24.386
		c-1.604,3.975-2.912,8.156-3.818,12.429l0,0v0.002c-0.1,0.454-0.188,0.911-0.277,1.364c-0.004,0.022-0.004,0.043-0.01,0.063
		c-0.26,1.356-0.473,2.721-0.646,4.089c-0.002,0.015-0.002,0.027-0.002,0.041c-0.045,0.338-0.084,0.676-0.117,1.014
		c-0.023,0.218-0.045,0.438-0.066,0.655c-0.473,4.858-0.361,9.755,0.484,14.523c0.037,0.199-0.258,0.261-0.307,0.065
		c-0.23-0.902-0.439-1.812-0.586-2.73c-0.674-4.273-0.732-8.688-0.303-13.081l0,0c0.043-0.431,0.092-0.86,0.145-1.29
		c0.004-0.041,0.008-0.081,0.014-0.121c0.051-0.433,0.107-0.864,0.174-1.298l0,0c0.074-0.521,0.154-1.041,0.242-1.559
		c0.07-0.408,0.145-0.814,0.219-1.219c0.004-0.02,0.008-0.033,0.01-0.05c0.076-0.407,0.158-0.814,0.242-1.218l0,0
		c0.986-4.713,2.475-9.313,4.305-13.597c4.143-9.678,10.93-18.183,20.195-23.379c17.814-9.997,39.887-6.029,57.438,2.482
		c4.59,2.227,9.02,4.796,13.201,7.723c4.543,3.18,8.871,6.636,13.559,9.607C165.851,52.958,177.347,58.361,187.808,53.548z
		 M78.749,33.957c2.881-1.112,5.869-2.205,8.855-2.977c6.627-1.711,13.563-2.598,20.363-1.364
		c6.439,1.169,12.727,3.947,18.355,7.256c5.615,3.3,11.002,6.977,16.602,10.312c2.721,1.62,5.494,3.187,8.385,4.494
		c1.525,0.691,3.061,1.361,4.607,2.003c1.41,0.584,2.631,1.171,3.512,2.448c0.518,0.755-0.113,2.088-1.025,2.167
		c-1.922,0.165-3.82-0.613-5.623-1.277c-6.1-2.246-11.768-5.772-17.223-9.249c-5.477-3.491-10.814-7.211-16.418-10.502
		c-5.941-3.49-12.156-6.046-19.104-6.484c-7.229-0.455-14.447,0.852-21.234,3.278C78.735,34.087,78.679,33.986,78.749,33.957z
		 M112.788,15.375c1.939-0.576,4.541,0.3,6.41,0.886c2.105,0.661,4.102,1.56,6.076,2.541c3.896,1.94,7.762,4.093,11.311,6.625
		c2.266,1.616,4.5,3.277,6.75,4.915c2.055,1.497,4.027,3.14,6.127,4.569c3.617,2.46,6.68,5.997,10.809,7.65
		c0.287,0.115,0.145,0.5-0.148,0.443c-4.195-0.818-7.322-4.465-10.746-6.764c-4.236-2.846-8.279-5.925-12.664-8.567
		c-3.824-2.306-7.877-4.299-12.061-5.872c-2.045-0.767-4.143-1.447-6.266-1.972c-0.939-0.233-1.883-0.435-2.85-0.541
		c-0.992-0.111-1.98-0.08-2.941-0.39C110.759,18.306,111.12,15.873,112.788,15.375z M66.901,21.697
		c5.006-3.858,10.801-6.689,16.938-8.215c3.107-0.771,6.297-1.201,9.49-1.405c3.059-0.196,6.35-0.333,9.346,0.409
		c1.236,0.307,1.863,1.816,1.484,2.957c-0.346,1.045-1.299,1.591-2.361,1.602c-2.91,0.023-5.814-0.427-8.744-0.35
		c-2.932,0.079-5.828,0.43-8.709,0.984c-5.781,1.117-11.721,3.055-16.506,6.589c-4.418,3.261-8.396,6.937-12.043,11.036
		c-3.604,4.045-6.242,9.04-6.691,14.507c-0.014,0.176-0.291,0.21-0.316,0.024c-0.055-0.425-0.104-0.854-0.117-1.285
		c-0.168-5.309,3.262-10.755,6.416-14.787c1.807-2.309,3.771-4.489,5.855-6.549C62.847,25.332,64.776,23.333,66.901,21.697z
		 M41.282,71.57c-0.344-9.932,1.455-20.126,5.523-29.243c-1.236,4.459-2.035,9.007-2.697,13.633
		c-0.971,6.729-1.623,13.55-1.473,20.353c0.09,4.285,0.594,8.459,1.564,12.548C42.368,83.294,41.481,77.415,41.282,71.57z
		 M46.69,107.279c-0.148-0.465-0.266-0.936-0.359-1.411c-0.373-1.873-0.314-3.81,0.029-5.692c0.174,0.282,0.344,0.565,0.521,0.846
		C46.524,103.031,46.388,105.265,46.69,107.279z M59.692,170.934c-0.154,0.152-0.457,0.318-0.797,0.41
		c-0.275,0.078,0.008,0.027-0.373,0.043c-0.182,0.006-0.326-0.01-0.5-0.045c-0.469-0.09-0.889-0.277-1.301-0.502
		c-2.248-1.232-3.922-3.512-5.25-5.643c-2.498-4.004-5.57-11.393-1.811-15.557c1.006-1.109,2.469-1.621,3.936-1.965
		c0.199,0.688,0.4,1.369,0.602,2.055c-4.213,1.631-4.195,7.881-3.008,11.756c0.713,2.338,2.016,4.773,4.037,6.232
		c1.506,1.084,3.229,1.297,4.783,0.719c0.174,0.525,0.35,1.053,0.525,1.578C60.267,170.313,60.069,170.574,59.692,170.934z
		 M94.452,191.91c-0.08-2.561,1.164-5.344,2.297-7.594c1.105-2.201,2.449-4.133,4.199-5.857c3.568-3.525,7.844-6.064,12.875-6.754
		c0.297-0.045,0.389,0.375,0.098,0.455c-4.625,1.273-9.391,3.256-12.512,7.07c-1.443,1.766-2.719,3.828-3.635,5.912
		c-0.988,2.252-1.387,4.734-2.408,6.941C95.142,192.566,94.472,192.455,94.452,191.91z M145.159,233.275
		c-2.041-0.098-4.07-0.236-6.107-0.363l-21.246-2.199c-6.85-1.08-13.646-2.475-20.42-3.965c1.514-3.553,2.688-7.314,3.725-11.109
		c2.684-9.801,4.824-19.744,7.371-29.578c1.6-6.182,5.797-9.191,12.197-9.582c21.092-1.271,21.301,2.475,25.395,17.441
		c3.156,11.525,6.063,23.189,10.182,34.377c-0.467,0.699-0.902,1.361-1.303,1.977c-1.809,1.453-3.865,2.557-6.238,3.143
		C147.528,233.385,146.341,233.334,145.159,233.275z M158.536,190.678c-0.117,0.33-0.553,0.438-0.793,0.172
		c-0.727-0.811-0.75-2.461-1.063-3.5c-0.389-1.297-0.84-2.572-1.408-3.805c-1.063-2.299-2.426-4.514-4.225-6.309
		c-1.818-1.809-3.988-3.275-6.416-4.139c-1.297-0.457-2.637-0.814-4.004-0.988c-1.316-0.164-2.641-0.16-3.957-0.336
		c-0.209-0.029-0.242-0.324-0.029-0.381c2.707-0.648,5.982-0.049,8.553,0.939c2.369,0.916,4.553,2.275,6.363,4.057
		c1.947,1.92,3.547,4.166,4.721,6.633c0.582,1.225,1.094,2.486,1.502,3.781C158.114,187.867,158.921,189.59,158.536,190.678z
		 M179.692,186.041c-2.6,6.439-5.596,12.705-8.783,18.877c-0.92,1.785-1.842,3.584-2.773,5.379
		c-0.555,0.836-1.107,1.672-1.662,2.514c-1.633-8.332-2.824-16.787-4.777-25.045c-3.703-15.686-18.459-23.141-33.371-17.576
		c-1.27,0.475-3.008,0.465-4.287,0.006c-15.537-5.613-30.34,2.445-33.74,18.617c-1.395,6.635-2.15,13.408-3.682,20.008
		c-0.416,1.793-0.836,3.59-1.262,5.387c-0.785-1.299-1.596-2.588-2.377-3.885c-1.813-3.016-3.467-6.135-5.082-9.262
		c-3.227-6.232-6.031-12.693-8.564-19.236c-2.57-6.645-4.805-13.414-6.963-20.203c-1.002-3.17-1.994-6.35-2.992-9.523
		c-0.277-0.875-0.543-1.762-0.809-2.645c0.859,0.754,1.697,1.543,2.617,2.223c1.35,1.004,2.768,1.922,4.238,2.74
		c3.047,1.701,6.543,3.008,9.91,3.934c2.746,0.758,5.564,1.24,8.408,1.379c2.289,0.225,4.584,0.229,6.861-0.014
		c1.072-0.045,2.141-0.15,3.199-0.326c2.762-0.266,6.752-1.219,10.961-4.385c2.709-1.814,9.084-10.031,9.848-11.584
		c1.506-3.055,2.766-6.193,3.773-9.445c1.383-4.477,2.914-8.987,3.453-13.654c0.951-0.112,1.912-0.176,2.906-0.137
		c0.697,0.024,1.379,0.1,2.063,0.188c0.273,2.415,0.813,4.788,1.459,7.134c-0.102,0.049-0.199,0.117-0.291,0.223
		c-0.848,0.92-1.461,1.768-1.68,3.02c-0.119,0.695-0.061,1.479,0.271,2.094c0.723,4.85,2.803,9.76,4.998,14.07
		c1.391,2.74,3.178,5.248,4.473,8.037c0.303,0.654,0.645,1.389,0.947,2.15c0.029,0.395,0.059,0.785,0.092,1.166
		c0.105,0.992,0.098,2.006-0.068,2.994c-0.063,0.387-0.205,0.797-0.424,1.121c-0.012,0.014-0.021,0.027-0.027,0.039
		c-1.379,0.266-3.584-0.75-4.486-1.133c-0.426-0.182-0.977,0.082-1.117,0.518c-1.826,5.537-11.648,6.553-12.424-0.146
		c-0.063-0.568-0.824-0.965-1.285-0.541c-0.912,0.84-2,1.947-3.248,2.262c-0.084,0.023-0.133,0.02-0.154,0.008
		c-0.139-0.189-0.172-0.488-0.184-0.771c-0.104-2.297,0.809-4.779,1.523-6.92c0.932-2.789,2.275-5.398,3.24-8.172
		c1.832-5.254,2.543-10.84,3.721-16.256c0.057-0.26-0.326-0.338-0.398-0.086c-1.654,5.994-2.525,12.217-5.02,17.953
		c-1.119,2.566-2.373,5.01-3.291,7.668c-0.693,2.002-1.951,4.998-1.055,7.121c0.9,2.127,3.318,0.58,4.842-0.66
		c1.945,6.455,11.734,5.922,14.83,0.334c1.018,0.867,2.123,1.531,3.541,1.605c1.242,0.061,2.346-0.459,3.061-1.492
		c1.438-2.063,1.07-5.154,0.627-7.463c-0.133-0.682-0.563-1.291-0.762-1.965c-0.16-0.563-0.361-1.115-0.6-1.654
		c-1.027-2.334-2.01-4.691-2.982-7.051c-0.209-0.51-0.414-1.027-0.617-1.539c1.447,2.303,7.072,9.436,9.572,11.111
		c4.211,3.162,8.201,4.115,10.963,4.381c1.061,0.176,2.127,0.285,3.199,0.326c2.275,0.246,4.57,0.244,6.859,0.014
		c2.844-0.135,5.662-0.621,8.41-1.375c3.365-0.928,6.861-2.236,9.91-3.936c1.471-0.818,2.889-1.734,4.238-2.74
		c1.482-1.1,2.754-2.469,4.248-3.543c0.133-0.094,0.264-0.195,0.396-0.303c-1.742,5.85-3.477,11.695-5.342,17.51
		C184.554,172.391,182.403,179.309,179.692,186.041z M190.276,168.908c-0.213-0.033-0.568-0.131-0.918-0.105
		c0.271-0.846,0.537-1.693,0.807-2.539c0.041,0.125,0.084,0.248,0.133,0.371c0.281,0.766,0.643,1.625,1.115,2.395
		C191.034,169.018,190.653,168.973,190.276,168.908z M198.692,142.621c0.703,0.205,1.18,0.943,1.498,1.592
		c1.053,2.121,1.076,4.863,1.027,7.17c-0.063,3.127-0.643,6.258-1.625,9.219c-0.793,2.387-1.957,4.766-3.777,6.531
		c0.252-0.57,0.5-1.137,0.746-1.699c1.115-2.533,2.125-5.115,2.951-7.758c0.756-2.424,1.371-5.18,0.912-7.721
		c-0.207-1.148-0.609-2.258-1.291-3.215c-0.756-1.053-1.678-1.678-2.797-2.082c0.027-0.129,0.051-0.26,0.076-0.391
		c0.068-0.391,0.01-0.734-0.131-1.023C197.048,142.779,197.946,142.408,198.692,142.621z"/>
	<path fill="#41294A" d="M132.001,192.016c2.123-0.434,4.566-1.215,6.252-2.623c1.18-0.982-0.164-2.705-1.463-2.113
		c-1.688,0.762-3.176,1.643-4.99,2.133c-1.854,0.496-3.787,0.67-5.705,0.68c-4.662,0.031-9.1-1.131-13.549-2.375
		c-0.344-0.098-0.631,0.424-0.326,0.639c3.758,2.635,8.684,3.91,13.215,4.152C127.634,192.625,129.845,192.459,132.001,192.016z"/>
	<path fill="#41294A" d="M116.146,185.287c2.785-2.088,6.654-2.926,10.074-2.934c0.906-0.002,1.803,0.063,2.689,0.186
		c1.828,0.398,3.596,1.09,5.223,2.096c0.34,0.203,0.666,0.158,0.902-0.016c0.1,0.049,0.199,0.092,0.299,0.137
		c1.396,0.623,2.846-1.184,1.604-2.27c-1.357-1.18-3.371-1.793-5.076-2.229c-1.871-0.48-3.848-0.648-5.775-0.604
		c-1.938,0.047-3.891,0.309-5.738,0.906c-2.178,0.703-3.84,1.797-5.406,3.439C114.237,184.742,115.349,185.889,116.146,185.287z"/>
	<path fill="#41294A" d="M138.37,196.744c-1.266,0.049-2.295,1.471-3.32,2.119c-0.752,0.48-1.648,0.775-2.5,1.02
		c-1.76,0.504-3.678,0.555-5.494,0.447c-4.154-0.242-7.832-1.787-11.666-3.227c-0.361-0.135-0.748,0.375-0.512,0.684
		c1.529,1.98,3.965,3.023,6.26,3.861c2.309,0.842,4.791,1.246,7.244,1.338c2.27,0.086,4.561-0.229,6.676-1.082
		c1.717-0.688,4.766-2.42,4.145-4.635C139.104,196.912,138.712,196.732,138.37,196.744z"/>
	<path fill="#41294A" d="M90.056,153.264c4.691-1.451,8.592-4.443,11.881-8.016c1.078-1.17,2.111-2.42,3.059-3.73
		c1.074-1.324,1.984-2.789,2.689-4.383c0.094-0.188,0.184-0.379,0.271-0.57c1.324-1.729,2.404-3.621,3.055-5.719
		c0.502-1.623,0.549-3.252,0.213-4.793c0.111-1.737-0.416-3.428-1.822-4.901c-1.02-1.068-2.412-1.806-3.762-2.375
		c-0.092-0.039-0.189-0.078-0.291-0.121c-1.621-0.929-3.402-1.615-5.131-2.185c-3.748-1.226-7.729-1.781-11.643-2.114
		c-5.666-0.48-11.482-0.434-17.129,0.24c-4.732,0.564-9.982,1.152-14.215,3.526c-0.258,0.15-0.473,0.339-0.613,0.575
		c-0.092,0.015-0.172,0.074-0.207,0.185c-0.152,0.476-0.279,0.949-0.398,1.426c-0.557,0.82-0.754,1.83-0.889,2.804
		c-0.441,3.215-0.383,6.684,0.564,9.793c0.654,2.143,1.711,4.1,3.041,5.871C64.692,149.666,77.583,157.115,90.056,153.264z
		 M105.39,133.186c-0.043,0.201-0.086,0.402-0.139,0.598c-0.076,0.285-0.162,0.566-0.258,0.844c-0.02,0.021-0.035,0.045-0.053,0.068
		c-0.283,0.355-0.58,0.703-0.881,1.049C104.522,134.896,104.968,134.045,105.39,133.186z M89.036,150.59
		c0.248-0.1,0.49-0.207,0.734-0.311c0.141-0.031,0.281-0.057,0.422-0.086C89.81,150.334,89.425,150.469,89.036,150.59z
		 M95.599,119.81c1.709,0.537,3.365,1.279,4.842,2.266c-0.105,0.053-0.211,0.106-0.314,0.169c-0.117-0.063-0.24-0.122-0.361-0.176
		c-1.094-0.5-2.182-0.629-3.234-0.504c-0.486-0.891-1.186-1.605-2.115-1.998C94.8,119.645,95.196,119.726,95.599,119.81z
		 M92.692,119.23c-0.127,0-0.252,0.002-0.379,0.008c-0.238,0.021-0.473,0.052-0.703,0.101c-0.033-0.103-0.068-0.21-0.1-0.313
		C91.903,119.089,92.298,119.157,92.692,119.23z M89.524,118.762c0.092-0.002,0.189-0.002,0.283-0.002
		c0.148,0.021,0.297,0.043,0.443,0.067c0.059,0.296,0.121,0.589,0.188,0.885c-0.365,0.159-0.723,0.349-1.07,0.567
		c-0.166-0.359-0.385-0.711-0.662-1.054c-0.045-0.145-0.084-0.296-0.119-0.445C88.899,118.773,89.212,118.764,89.524,118.762z
		 M87.862,146.768c0.021,0.064,0.047,0.129,0.072,0.186c-0.041,0.016-0.08,0.031-0.119,0.047c-0.189,0.025-0.377,0.045-0.568,0.064
		C87.454,146.973,87.659,146.873,87.862,146.768z M83.446,120.691c0.027-0.004,0.057-0.005,0.074-0.005
		c0.027,0,0.057,0.001,0.092,0.001c0.158,0.006,0.318,0.022,0.475,0.036c0.154,0.021,0.305,0.049,0.457,0.076
		c0.023,0.01,0.049,0.018,0.088,0.032c0.141,0.047,0.277,0.106,0.41,0.167c0.021,0.009,0.037,0.017,0.053,0.023
		c0.008,0.004,0.008,0.006,0.014,0.008c0.123,0.079,0.232,0.169,0.342,0.262c-1.385,0.016-2.803,0.429-4.1,1.033
		c-0.213-0.348-0.453-0.683-0.709-1.001C81.538,120.966,82.388,120.764,83.446,120.691z M72.149,131.994
		c-0.068,0.133-0.137,0.262-0.201,0.396c-0.16,0.32-0.311,0.648-0.451,0.982c-0.064-0.193-0.113-0.377-0.146-0.547
		c-0.068-0.355-0.1-0.594-0.102-0.82C71.55,132.01,71.851,132.006,72.149,131.994z M65.858,126.156
		c-0.256,0.195,0.797-0.268,0.32-0.141c0.418-0.111,0.67-0.16,0.918-0.164c-0.279,0.342-0.539,0.699-0.775,1.066
		c-0.236-0.182-0.453-0.391-0.65-0.631C65.729,126.24,65.794,126.197,65.858,126.156z M60.231,132.104
		c0.076-0.057,0.146-0.127,0.195-0.209c0.27,0.541,0.555,1.076,0.852,1.605C60.903,133.047,60.554,132.58,60.231,132.104z"/>
	<path fill="#41294A" d="M192.899,119.959c-0.117-0.479-0.244-0.952-0.398-1.428c-0.033-0.112-0.117-0.17-0.205-0.186
		c-0.141-0.233-0.357-0.425-0.617-0.574c-4.23-2.372-9.48-2.962-14.215-3.527c-5.645-0.674-11.463-0.722-17.127-0.237
		c-3.914,0.331-7.896,0.889-11.641,2.114c-1.729,0.567-3.51,1.254-5.135,2.182c-0.096,0.043-0.193,0.085-0.289,0.124
		c-1.35,0.566-2.74,1.304-3.76,2.374c-1.406,1.471-1.936,3.165-1.824,4.9c-0.334,1.541-0.289,3.172,0.217,4.793
		c0.652,2.1,1.725,3.992,3.049,5.719c0.094,0.193,0.18,0.381,0.273,0.57c0.705,1.594,1.613,3.057,2.689,4.383
		c0.953,1.313,1.98,2.559,3.061,3.729c3.287,3.576,7.188,6.568,11.883,8.018c12.469,3.848,25.357-3.596,31.324-14.49
		c1.33-1.77,2.387-3.725,3.039-5.865c0.949-3.109,1.006-6.582,0.566-9.795C193.657,121.788,193.458,120.779,192.899,119.959z
		 M143.974,134.346c-0.02-0.025-0.037-0.047-0.053-0.07c-0.096-0.275-0.184-0.557-0.258-0.842c-0.053-0.195-0.098-0.396-0.141-0.602
		c0.424,0.861,0.867,1.713,1.33,2.557C144.552,135.049,144.255,134.701,143.974,134.346z M152.384,121.211
		c-1.057-0.124-2.139,0.008-3.234,0.505c-0.125,0.057-0.242,0.116-0.361,0.176c-0.104-0.058-0.209-0.115-0.316-0.172
		c1.475-0.98,3.137-1.725,4.842-2.259c0.402-0.084,0.799-0.164,1.186-0.247C153.569,119.61,152.868,120.327,152.384,121.211z
		 M157.304,118.989c-0.23-0.049-0.467-0.085-0.703-0.1c-0.131-0.009-0.254-0.011-0.375-0.009c0.391-0.077,0.781-0.143,1.176-0.206
		C157.37,118.777,157.341,118.885,157.304,118.989z M158.722,149.842c0.139,0.029,0.279,0.057,0.418,0.086
		c0.246,0.104,0.488,0.211,0.736,0.311C159.487,150.115,159.104,149.982,158.722,149.842z M160.21,118.875
		c-0.279,0.342-0.5,0.694-0.668,1.053c-0.344-0.217-0.699-0.407-1.066-0.566c0.066-0.296,0.127-0.588,0.188-0.883
		c0.148-0.024,0.293-0.049,0.443-0.069c0.094,0,0.189,0,0.283,0c0.311,0.003,0.627,0.013,0.938,0.021
		C160.292,118.581,160.251,118.728,160.21,118.875z M161.099,146.648c-0.041-0.016-0.08-0.031-0.115-0.047
		c0.021-0.061,0.047-0.119,0.068-0.18c0.203,0.1,0.406,0.197,0.613,0.291C161.476,146.691,161.286,146.674,161.099,146.648z
		 M167.56,121.971c-1.295-0.603-2.715-1.017-4.1-1.031c0.113-0.094,0.225-0.184,0.346-0.26c0.004-0.006,0.008-0.006,0.01-0.01
		c0.02-0.005,0.033-0.015,0.055-0.022c0.135-0.062,0.271-0.123,0.41-0.168c0.039-0.014,0.064-0.022,0.09-0.032
		c0.152-0.028,0.301-0.056,0.455-0.074c0.158-0.016,0.316-0.032,0.477-0.036c0.035,0,0.066-0.002,0.086-0.006
		c0.023,0.006,0.051,0.006,0.078,0.008c1.061,0.073,1.912,0.277,2.807,0.633C168.013,121.293,167.778,121.626,167.56,121.971z
		 M177.562,132.473c-0.029,0.17-0.08,0.357-0.146,0.547c-0.139-0.332-0.291-0.662-0.449-0.982c-0.064-0.131-0.133-0.262-0.201-0.395
		c0.297,0.014,0.602,0.018,0.898,0.018C177.661,131.881,177.628,132.117,177.562,132.473z M182.593,126.57
		c-0.238-0.373-0.496-0.73-0.777-1.07c0.25,0.006,0.502,0.053,0.916,0.164c-0.473-0.125,0.578,0.336,0.322,0.141
		c0.064,0.045,0.127,0.084,0.189,0.131C183.044,126.174,182.827,126.387,182.593,126.57z M187.634,133.146
		c0.299-0.525,0.58-1.063,0.852-1.604c0.051,0.084,0.117,0.154,0.199,0.209C188.358,132.23,188.011,132.695,187.634,133.146z"/>
</g>
</svg>
